<svg width="126" height="202" viewBox="0 0 126 202" fill="none" xmlns="http://www.w3.org/2000/svg">
<g opacity="0.2">
<mask id="mask0_9818_15819" style="mask-type:luminance" maskUnits="userSpaceOnUse" x="0" y="0" width="203" height="202">
<path d="M101.321 201.588C156.975 201.588 202.092 156.472 202.092 100.817C202.092 45.1634 156.975 0.046875 101.321 0.046875C45.6673 0.046875 0.550781 45.1634 0.550781 100.817C0.550781 156.472 45.6673 201.588 101.321 201.588Z" fill="white"/>
</mask>
<g mask="url(#mask0_9818_15819)">
<path d="M265.155 66.2802L-28.9297 353.867L-26.4369 356.416L267.648 68.8293L265.155 66.2802Z" fill="#E5106C"/>
<path d="M265.158 43.4253L-28.9766 330.961L-26.4842 333.51L267.651 45.9748L265.158 43.4253Z" fill="#E5106C"/>
<path d="M265.162 20.4878L-28.9727 308.023L-26.4803 310.573L267.654 23.0373L265.162 20.4878Z" fill="#E5106C"/>
<path d="M265.158 -2.46533L-28.9766 285.07L-26.4842 287.62L267.651 0.0841906L265.158 -2.46533Z" fill="#E5106C"/>
<path d="M265.158 -25.4028L-28.9766 262.133L-26.4842 264.682L267.651 -22.8533L265.158 -25.4028Z" fill="#E5106C"/>
<path d="M265.162 -48.3325L-28.9727 239.203L-26.4803 241.753L267.654 -45.783L265.162 -48.3325Z" fill="#E5106C"/>
<path d="M265.162 -71.2778L-28.9727 216.258L-26.4803 218.807L267.654 -68.7283L265.162 -71.2778Z" fill="#E5106C"/>
<path d="M265.162 -94.2231L-28.9727 193.312L-26.4803 195.862L267.654 -91.6736L265.162 -94.2231Z" fill="#E5106C"/>
<path d="M265.166 -117.161L-28.9688 170.375L-26.4764 172.925L267.658 -114.611L265.166 -117.161Z" fill="#E5106C"/>
<path d="M265.166 -140.106L-28.9688 147.43L-26.4764 149.979L267.658 -137.556L265.166 -140.106Z" fill="#E5106C"/>
<path d="M265.166 -163.043L-28.9688 124.492L-26.4764 127.042L267.658 -160.494L265.166 -163.043Z" fill="#E5106C"/>
<path d="M265.166 -185.973L-28.9688 101.562L-26.4764 104.112L267.658 -183.424L265.166 -185.973Z" fill="#E5106C"/>
</g>
</g>
</svg>
