<svg width="176" height="322" viewBox="0 0 176 322" fill="none" xmlns="http://www.w3.org/2000/svg">
<g opacity="0.2" clip-path="url(#clip0_9818_15862)">
<path d="M5.94518 271.056L7.65947 271.101L7.67455 271.092C8.90407 271.133 9.87572 272.154 9.86014 273.38C9.84456 274.607 8.83567 275.575 7.61493 275.549C7.61493 275.549 7.576 275.551 7.55214 275.545L5.77256 275.456C4.57319 275.398 3.63169 274.359 3.69499 273.146C3.75199 271.957 4.73323 271.045 5.91503 271.073L5.94518 271.056Z" fill="#E5106C"/>
<path d="M17.9657 270.952L19.6788 270.855L19.709 270.838C20.9787 270.774 22.0798 271.741 22.1684 273.009C22.2571 274.276 21.3034 275.375 20.0424 275.454L20.0273 275.462L18.2514 275.554C16.9968 275.609 15.9108 274.633 15.846 273.372C15.7812 272.111 16.7136 271.046 17.9745 270.967L18.0047 270.949L17.9657 270.952Z" fill="#E5106C"/>
<path d="M29.8809 269.732L31.5601 269.473L31.5903 269.456C32.8764 269.281 34.0892 270.163 34.2884 271.448C34.4875 272.733 33.6192 273.945 32.3419 274.134L30.5847 274.398C29.2923 274.596 28.0946 273.705 27.8803 272.429C27.6661 271.153 28.5495 269.933 29.8181 269.728L29.8482 269.711L29.8809 269.732Z" fill="#E5106C"/>
<path d="M41.6452 267.446L43.3145 267.03L43.3446 267.012C44.5994 266.714 45.8588 267.468 46.181 268.722C46.5033 269.977 45.763 271.236 44.517 271.55L42.7875 272C41.5415 272.314 40.2582 271.554 39.936 270.299C39.6137 269.045 40.3603 267.762 41.6063 267.448L41.6364 267.431L41.6452 267.446Z" fill="#E5106C"/>
<path d="M53.0897 264.044L54.7013 263.459L54.7314 263.441C55.9159 263.021 57.213 263.632 57.6408 264.825C58.0749 265.995 57.4778 267.293 56.341 267.726L54.6779 268.362C53.511 268.812 52.1837 268.219 51.717 267.028C51.2591 265.852 51.8386 264.523 53.0206 264.064C53.0206 264.064 53.0357 264.055 53.0508 264.047L53.096 264.02L53.0897 264.044Z" fill="#E5106C"/>
<path d="M64.0869 259.421L65.6081 258.644L65.6382 258.627C66.6984 258.096 68.0069 258.517 68.544 259.587C69.0811 260.656 68.6787 261.943 67.6423 262.481L66.0696 263.308C65.0119 263.878 63.6883 263.465 63.1274 262.389C62.5514 261.322 62.9513 259.995 64.0178 259.441C64.0178 259.441 64.0328 259.432 64.0479 259.423L64.0931 259.397L64.0869 259.421Z" fill="#E5106C"/>
<path d="M74.3726 253.455L75.7645 252.489L75.7947 252.471C76.6853 251.856 77.9186 252.077 78.5474 252.992C79.1586 253.877 78.9547 255.09 78.1029 255.703L76.662 256.759C75.7738 257.413 74.5192 257.225 73.8602 256.327C73.2012 255.429 73.3788 254.17 74.267 253.516C74.2821 253.507 74.2972 253.498 74.3123 253.489L74.3575 253.463L74.3726 253.455Z" fill="#E5106C"/>
<path d="M83.7596 246.113L85.0223 244.958L85.0524 244.941C85.7673 244.264 86.8888 244.327 87.5528 245.059C88.2081 245.777 88.1763 246.87 87.5003 247.544L86.2276 248.787C85.5215 249.478 84.3723 249.472 83.6693 248.742C82.9751 248.027 82.9718 246.872 83.693 246.172C83.693 246.172 83.7231 246.155 83.7382 246.146L83.7684 246.128L83.7596 246.113Z" fill="#E5106C"/>
<path d="M92.1392 237.541L93.2512 236.23L93.2663 236.221C93.8254 235.553 94.8289 235.481 95.483 236.057C96.1283 236.618 96.2296 237.594 95.6855 238.253L94.5785 239.643C94.0281 240.325 93.0121 240.446 92.319 239.872C91.626 239.298 91.5071 238.291 92.0726 237.6L92.1027 237.582L92.1329 237.565L92.1392 237.541Z" fill="#E5106C"/>
<path d="M99.5094 228.028L100.482 226.615C100.903 225.986 101.761 225.836 102.39 226.264C103.004 226.7 103.167 227.54 102.776 228.151L101.823 229.634C101.396 230.286 100.541 230.476 99.8727 230.05C99.2199 229.616 99.0243 228.755 99.4428 228.087C99.4428 228.087 99.4579 228.078 99.4642 228.054L99.4792 228.046L99.5094 228.028Z" fill="#E5106C"/>
<path d="M105.961 217.797L106.818 216.288C107.133 215.72 107.848 215.531 108.416 215.852C108.959 216.167 109.169 216.878 108.884 217.428L108.077 218.99C107.77 219.573 107.043 219.81 106.46 219.497C105.877 219.184 105.635 218.452 105.942 217.869C105.942 217.869 105.957 217.86 105.963 217.836L105.961 217.797Z" fill="#E5106C"/>
<path d="M111.541 207.024L112.276 205.443C112.501 204.927 113.105 204.721 113.605 204.959C114.105 205.198 114.322 205.783 114.103 206.275L113.409 207.893C113.184 208.408 112.589 208.63 112.059 208.408C111.544 208.178 111.318 207.578 111.534 207.048L111.541 207.024Z" fill="#E5106C"/>
<path d="M116.33 195.821L116.961 194.199C117.134 193.734 117.637 193.525 118.093 193.688C118.533 193.859 118.769 194.372 118.602 194.814L118.004 196.458C117.83 196.923 117.321 197.156 116.857 196.978C116.392 196.8 116.156 196.287 116.33 195.821C116.33 195.821 116.33 195.821 116.345 195.813L116.33 195.821Z" fill="#E5106C"/>
<path d="M120.362 184.32L120.874 182.666C121.002 182.226 121.463 181.981 121.901 182.113C122.339 182.245 122.573 182.719 122.46 183.15L121.942 184.829C121.813 185.268 121.352 185.514 120.905 185.366C120.467 185.234 120.218 184.768 120.362 184.32Z" fill="#E5106C"/>
<path d="M123.653 172.588L124.037 170.885C124.126 170.448 124.555 170.181 124.975 170.283C125.396 170.385 125.666 170.817 125.568 171.239L125.169 172.95C125.071 173.372 124.643 173.64 124.222 173.538C123.801 173.436 123.546 172.995 123.629 172.581L123.653 172.588Z" fill="#E5106C"/>
<path d="M125.928 160.622L126.162 158.905C126.225 158.422 126.651 158.115 127.123 158.167C127.589 158.243 127.913 158.665 127.85 159.147L127.594 160.898C127.523 161.365 127.097 161.672 126.631 161.596C126.165 161.52 125.856 161.09 125.913 160.631L125.928 160.622Z" fill="#E5106C"/>
<path d="M127.093 148.5L127.154 146.76C127.161 146.249 127.597 145.856 128.09 145.875C128.584 145.894 128.994 146.327 128.964 146.831L128.882 148.603C128.851 149.108 128.43 149.493 127.928 149.458C127.435 149.439 127.048 149.013 127.063 148.517L127.093 148.5Z" fill="#E5106C"/>
<path d="M126.931 136.344L126.773 134.609C126.714 134.054 127.106 133.585 127.643 133.539C128.179 133.493 128.65 133.891 128.7 134.43L128.845 136.213C128.886 136.737 128.494 137.206 127.958 137.252C127.437 137.289 126.966 136.892 126.925 136.368L126.931 136.344Z" fill="#E5106C"/>
<path d="M125.068 124.35L124.656 122.661C124.49 122.026 124.866 121.423 125.466 121.28C126.067 121.136 126.684 121.509 126.832 122.114C126.832 122.114 126.841 122.129 126.85 122.144L127.235 123.89C127.359 124.488 126.998 125.082 126.389 125.21C125.795 125.33 125.225 124.969 125.086 124.38L125.068 124.35Z" fill="#E5106C"/>
<path d="M121.385 112.843L120.698 111.272L120.681 111.241C120.396 110.574 120.699 109.811 121.346 109.539C122.008 109.258 122.77 109.568 123.046 110.221C123.046 110.221 123.055 110.236 123.064 110.251L123.716 111.903C123.977 112.564 123.656 113.297 123.025 113.56C122.384 113.808 121.669 113.511 121.387 112.883L121.37 112.852L121.385 112.843Z" fill="#E5106C"/>
<path d="M115.771 102.192L114.819 100.753L114.802 100.723C114.352 100.049 114.529 99.1355 115.196 98.6895C115.863 98.2435 116.773 98.4279 117.223 99.1018C117.223 99.1018 117.24 99.1322 117.249 99.1474L118.19 100.673C118.601 101.349 118.407 102.232 117.731 102.663C117.077 103.061 116.205 102.875 115.788 102.222L115.771 102.192Z" fill="#E5106C"/>
<path d="M108.478 92.582L107.333 91.2953L107.316 91.2649C106.702 90.5846 106.76 89.5366 107.432 88.9253C108.104 88.3141 109.148 88.381 109.762 89.0613C109.762 89.0613 109.779 89.0918 109.788 89.107L110.938 90.4719C111.522 91.1696 111.431 92.1959 110.756 92.768C110.082 93.3401 109.092 93.2623 108.511 92.6037L108.493 92.5733L108.478 92.582Z" fill="#E5106C"/>
<path d="M99.9895 83.9679L98.6964 82.8074C97.9243 82.0967 97.8582 80.9379 98.5292 80.1853C99.2002 79.4327 100.368 79.367 101.123 80.0472C101.123 80.0472 101.14 80.0777 101.149 80.0929L102.438 81.3165C103.163 82.0141 103.205 83.1664 102.516 83.8886C101.843 84.602 100.735 84.6329 99.9983 83.9831L99.9807 83.9527L99.9895 83.9679Z" fill="#E5106C"/>
<path d="M90.6846 76.1741L89.3123 75.1202C88.4234 74.4161 88.2419 73.1616 88.9204 72.2829C89.599 71.4042 90.8462 71.232 91.7263 71.9208L91.7438 71.9513L93.1362 73.0748C93.9924 73.7571 94.1351 75.0138 93.4628 75.8686C92.7905 76.7233 91.5647 76.863 90.7172 76.1958L90.6846 76.1741Z" fill="#E5106C"/>
<path d="M80.8496 69.0933L79.3982 68.1459C78.395 67.4875 78.1067 66.1526 78.7476 65.1739C79.3797 64.18 80.691 63.9099 81.6854 64.5531C81.6854 64.5531 81.703 64.5835 81.718 64.5748L83.2046 65.583C84.1689 66.2436 84.4245 67.5568 83.7748 68.5202C83.1402 69.475 81.8591 69.7277 80.8973 69.1063L80.8496 69.0933Z" fill="#E5106C"/>
<path d="M70.4887 62.8413L68.9669 62.0157C67.8494 61.403 67.4418 60.0355 68.0124 58.9351C68.583 57.8347 69.9559 57.4276 71.0558 58.0098L71.0885 58.0315L72.6454 58.918C73.724 59.5329 74.1078 60.8938 73.5045 61.9725C72.9163 63.0425 71.5886 63.4235 70.5126 62.8478L70.4887 62.8413Z" fill="#E5106C"/>
<path d="M59.6557 57.4877L58.0723 56.7991L58.0572 56.8078C56.843 56.2713 56.2922 54.8648 56.8014 53.6578C57.3105 52.4509 58.7061 51.909 59.9115 52.4303L59.9203 52.4455L61.5539 53.1862C62.7443 53.7163 63.28 55.1315 62.7621 56.3232C62.2354 57.4997 60.8549 58.033 59.6733 57.5181L59.6582 57.5268L59.6557 57.4877Z" fill="#E5106C"/>
<path d="M48.4357 53.092L46.7995 52.5557L46.7844 52.5644C45.4973 52.1105 44.7845 50.7366 45.202 49.4406C45.6132 48.1685 46.9899 47.4548 48.2683 47.8934C48.2683 47.8934 48.2683 47.8934 48.2921 47.9L49.9786 48.4885C51.2569 48.9272 51.9395 50.3184 51.5045 51.584C51.0845 52.8409 49.7291 53.522 48.4595 53.0985L48.4445 53.1072L48.4357 53.092Z" fill="#E5106C"/>
<path d="M36.9084 49.7665L35.2432 49.3889L35.2281 49.3976C33.8706 49.0655 33.0109 47.7157 33.3003 46.3719C33.6048 45.0193 34.9414 44.1665 36.2813 44.4681C36.2813 44.4681 36.2964 44.4594 36.3052 44.4747L38.0357 44.8957C39.3844 45.2126 40.214 46.5799 39.9007 47.9172C39.5874 49.2545 38.2722 50.0747 36.9322 49.7731L36.9021 49.7905L36.9084 49.7665Z" fill="#E5106C"/>
<path d="M25.129 47.6406L23.4436 47.4369L23.4135 47.4543C21.9944 47.2592 20.9663 45.9659 21.1339 44.5504C21.2928 43.1197 22.5654 42.1212 23.9908 42.2924C23.9908 42.2924 24.0059 42.2837 24.0147 42.2989L25.7804 42.5373C27.1907 42.7172 28.1886 44.0279 28.0122 45.4282C27.8358 46.8285 26.5782 47.8183 25.1767 47.6536L25.1465 47.671L25.129 47.6406Z" fill="#E5106C"/>
<path d="M13.2184 46.7524L11.5216 46.7379L11.4915 46.7553C10.0196 46.7124 8.8257 45.5149 8.84138 44.0451C8.84198 42.584 10.0243 41.3942 11.5025 41.4132C11.5025 41.4132 11.5175 41.4045 11.5326 41.3957L13.3248 41.4363C14.7879 41.464 15.9516 42.6789 15.936 44.1487C15.9115 45.6033 14.7267 46.754 13.2962 46.748L13.2661 46.7655L13.2184 46.7524Z" fill="#E5106C"/>
<path d="M1.3205 47.2099L-0.372535 47.3758L-0.402679 47.3932C-1.90983 47.533 -3.24566 46.4377 -3.41207 44.931C-3.57849 43.4243 -2.49911 42.0911 -1.00075 41.9361C-1.00075 41.9361 -0.985671 41.9274 -0.970597 41.9187L0.809077 41.7636C2.30115 41.6325 3.62191 42.7365 3.76446 44.2367C3.89823 45.7216 2.83393 47.0462 1.36572 47.1838L1.33557 47.2012L1.3205 47.2099Z" fill="#E5106C"/>
<path d="M4.53589 256.039L6.26277 256.036C6.88821 256.041 7.39665 256.538 7.39764 257.167C7.40493 257.771 6.92873 258.269 6.32965 258.311L4.58391 258.385C3.9371 258.414 3.4048 257.91 3.35609 257.268C3.32245 256.618 3.82 256.087 4.45802 256.044C4.45802 256.044 4.4731 256.035 4.49696 256.042L4.53589 256.039Z" fill="#E5106C"/>
<path d="M16.6145 255.473L18.3314 255.313C18.8526 255.276 19.3297 255.65 19.371 256.174C19.4273 256.689 19.0503 257.15 18.5467 257.218L16.8172 257.425C16.2897 257.486 15.7887 257.106 15.7387 256.567C15.6736 256.036 16.0481 255.536 16.5844 255.49L16.6145 255.473Z" fill="#E5106C"/>
<path d="M28.6205 253.962L30.3211 253.67C30.7771 253.589 31.219 253.902 31.303 254.361C31.3869 254.819 31.0941 255.252 30.6382 255.333L28.9313 255.649C28.4753 255.729 28.0183 255.425 27.9344 254.967C27.8504 254.508 28.1495 254.051 28.6054 253.97L28.6205 253.962Z" fill="#E5106C"/>
<path d="M40.4596 251.485L42.1352 251.045C42.5584 250.943 42.9891 251.201 43.1095 251.619C43.2148 252.045 42.976 252.467 42.5615 252.584L40.8709 253.033C40.4476 253.135 40.0019 252.885 39.8965 252.459C39.7912 252.033 40.0363 251.587 40.4596 251.485Z" fill="#E5106C"/>
<path d="M52.0036 247.946L53.6214 247.336C54.0573 247.186 54.5395 247.395 54.7164 247.84C54.8845 248.271 54.6658 248.762 54.2236 248.936L52.5731 249.524C52.1372 249.674 51.6613 249.442 51.4932 249.011C51.3402 248.572 51.5526 248.105 51.9797 247.939L52.0036 247.946Z" fill="#E5106C"/>
<path d="M63.0877 243.186L64.624 242.4C65.0787 242.178 65.6212 242.352 65.8609 242.802C66.1006 243.252 65.917 243.804 65.4711 244.041L63.9109 244.82C63.4562 245.042 62.9288 244.86 62.6891 244.41C62.4733 243.966 62.6418 243.423 63.0726 243.194L63.0877 243.186Z" fill="#E5106C"/>
<path d="M73.4525 237.124L74.8508 236.134L74.8658 236.125C75.3068 235.81 75.9309 235.916 76.2485 236.362C76.5661 236.807 76.4653 237.434 76.0093 237.758C76.0093 237.758 76.0093 237.758 75.9942 237.766L74.5332 238.752C74.0835 239.052 73.4895 238.929 73.1719 238.483C72.8782 238.044 72.9726 237.442 73.4224 237.141L73.4375 237.133L73.4525 237.124Z" fill="#E5106C"/>
<path d="M82.6887 229.515L83.9011 228.308L83.9313 228.29C84.3861 227.825 85.1371 227.838 85.6041 228.298C86.0712 228.759 86.0646 229.514 85.6097 229.979C85.6097 229.979 85.5947 229.988 85.5796 229.997L84.2893 231.208C83.8169 231.643 83.096 231.613 82.6441 231.144C82.216 230.681 82.2251 229.965 82.6736 229.524L82.7038 229.506L82.6887 229.515Z" fill="#E5106C"/>
<path d="M90.4754 220.479L91.4418 219.089L91.4719 219.071C91.8929 218.443 92.7507 218.292 93.3798 218.721C93.9937 219.157 94.1504 220.02 93.7294 220.649C93.7294 220.649 93.6992 220.666 93.708 220.682L92.6575 222.1C92.2189 222.698 91.3674 222.824 90.7836 222.37C90.1935 221.94 90.0544 221.107 90.4779 220.518L90.508 220.5L90.4754 220.479Z" fill="#E5106C"/>
<path d="M96.4915 210.182L97.2055 208.634L97.2206 208.625C97.5751 207.812 98.531 207.483 99.3132 207.863C100.111 208.235 100.446 209.198 100.073 209.981C100.073 209.981 100.052 210.014 100.046 210.037L99.2326 211.623C98.8517 212.39 97.9172 212.687 97.1412 212.282C96.3979 211.9 96.0893 210.983 96.44 210.232L96.4701 210.215L96.4915 210.182Z" fill="#E5106C"/>
<path d="M100.924 199.066L101.445 197.426L101.46 197.417C101.75 196.458 102.772 195.93 103.722 196.253C104.664 196.562 105.199 197.592 104.884 198.544C104.884 198.544 104.872 198.592 104.857 198.601L104.252 200.269C103.92 201.191 102.902 201.657 101.982 201.316C101.085 200.981 100.616 199.994 100.903 199.098L100.918 199.09L100.924 199.066Z" fill="#E5106C"/>
<path d="M104.157 187.464L104.534 185.786C104.77 184.696 105.853 184.03 106.924 184.284C107.995 184.538 108.666 185.632 108.422 186.706C108.422 186.706 108.416 186.73 108.41 186.754L107.972 188.467C107.704 189.535 106.619 190.162 105.56 189.86C104.519 189.588 103.88 188.517 104.127 187.482L104.142 187.473L104.157 187.464Z" fill="#E5106C"/>
<path d="M106.442 175.652L106.685 173.949C106.843 172.762 107.925 171.955 109.093 172.133C110.261 172.31 111.073 173.404 110.905 174.576C110.905 174.576 110.908 174.615 110.893 174.623L110.598 176.376C110.407 177.542 109.308 178.318 108.161 178.108C107.023 177.913 106.259 176.832 106.42 175.684L106.435 175.675L106.442 175.652Z" fill="#E5106C"/>
<path d="M107.71 163.68L107.804 161.962C107.862 160.67 108.934 159.707 110.19 159.793C111.446 159.88 112.414 160.964 112.338 162.225C112.338 162.225 112.34 162.264 112.334 162.288L112.189 164.056C112.089 165.311 111 166.244 109.75 166.133C108.525 166.03 107.604 164.958 107.659 163.73L107.641 163.699L107.71 163.68Z" fill="#E5106C"/>
<path d="M107.901 151.684L107.839 149.975L107.821 149.944C107.79 148.603 108.822 147.5 110.148 147.465C111.475 147.43 112.581 148.475 112.626 149.808C112.626 149.808 112.635 149.823 112.644 149.838L112.687 151.619C112.724 152.936 111.669 154.033 110.358 154.059C109.047 154.086 107.964 153.047 107.912 151.738L107.895 151.708L107.901 151.684Z" fill="#E5106C"/>
<path d="M106.924 139.73L106.691 138.039L106.673 138.009C106.484 136.637 107.428 135.382 108.792 135.203C110.147 135.009 111.404 135.967 111.593 137.339C111.593 137.339 111.602 137.354 111.61 137.369L111.833 139.148C112.013 140.505 111.061 141.744 109.703 141.899C108.369 142.061 107.137 141.109 106.95 139.776L106.932 139.746L106.924 139.73Z" fill="#E5106C"/>
<path d="M104.654 127.998L104.22 126.342L104.202 126.311C103.849 124.933 104.665 123.528 106.026 123.169C107.395 122.824 108.791 123.641 109.168 125.026L109.186 125.057L109.625 126.792C109.97 128.155 109.129 129.553 107.775 129.888C106.421 130.224 105.055 129.39 104.695 128.035L104.669 127.989L104.654 127.998Z" fill="#E5106C"/>
<path d="M101.014 116.644L100.382 115.061L100.356 115.016C99.8075 113.648 100.459 112.096 101.815 111.556C103.172 111.016 104.714 111.668 105.262 113.035L105.28 113.066L105.926 114.742C106.45 116.103 105.79 117.64 104.44 118.156C103.09 118.672 101.578 118.003 101.047 116.666L101.021 116.62L101.014 116.644Z" fill="#E5106C"/>
<path d="M95.8861 105.949L95.0427 104.488L95.0013 104.451C94.2458 103.142 94.6471 101.47 95.9347 100.707C97.2311 99.9581 98.8988 100.375 99.6694 101.675L99.687 101.705L100.592 103.272C101.347 104.581 100.898 106.24 99.6019 106.989C98.3206 107.728 96.6743 107.279 95.9125 105.994L95.8773 105.934L95.8861 105.949Z" fill="#E5106C"/>
<path d="M89.2284 96.1631L88.1677 94.8481L88.1413 94.8024C87.166 93.6005 87.3501 91.8306 88.5473 90.8756C89.7446 89.9206 91.499 90.1046 92.4593 91.3153L93.5966 92.7281C94.5568 93.9388 94.379 95.6848 93.1905 96.655C91.9933 97.61 90.2539 97.4172 89.2786 96.2152L89.2522 96.1696L89.2284 96.1631Z" fill="#E5106C"/>
<path d="M81.2675 87.3887L80.0372 86.2325L80.0109 86.1868C78.8571 85.1284 78.7988 83.3565 79.8367 82.2298C80.8896 81.0944 82.6529 81.0502 83.7828 82.102L85.1047 83.3473C86.2434 84.4144 86.3017 86.1864 85.2488 87.3218C84.1959 88.4572 82.4325 88.5014 81.2939 87.4343L81.2675 87.3887Z" fill="#E5106C"/>
<path d="M72.1579 79.7823L70.7819 78.7914L70.7555 78.7457C69.4711 77.8439 69.1641 76.0938 70.0601 74.8258C70.9561 73.5579 72.6956 73.2636 73.965 74.1741L75.439 75.2302C76.7083 76.1407 77.0002 77.8995 76.1193 79.1588C75.2233 80.4268 73.475 80.7058 72.2144 79.8105L72.1969 79.7801L72.1579 79.7823Z" fill="#E5106C"/>
<path d="M62.1603 73.362L60.6623 72.5429L60.6448 72.5125C59.2862 71.7955 58.787 70.0954 59.5072 68.7667C60.2274 67.4379 61.8766 66.9524 63.2113 67.6628L64.7897 68.5166C66.1332 69.2423 66.6625 70.9249 65.9511 72.2689C65.2397 73.6129 63.5691 74.1311 62.2256 73.4054L62.1754 73.3533L62.1603 73.362Z" fill="#E5106C"/>
<path d="M51.4712 68.1555L49.8902 67.506L49.8425 67.493C48.47 66.9261 47.7837 65.3544 48.3369 63.98C48.89 62.6057 50.4338 61.9375 51.7975 62.4892L53.4651 63.1495C54.8526 63.7077 55.5541 65.2707 55.0097 66.6603C54.4653 68.0499 52.9152 68.7419 51.5277 68.1837L51.5126 68.1924L51.4561 68.1642L51.4712 68.1555Z" fill="#E5106C"/>
<path d="M40.2316 64.1726L38.5916 63.6993L38.5439 63.6862C37.1512 63.2933 36.3229 61.8238 36.7028 60.4278C37.0827 59.0318 38.5084 58.2289 39.9074 58.5979L41.6253 59.0668C43.033 59.4511 43.8763 60.9119 43.4965 62.3079C43.1254 63.7191 41.6783 64.5546 40.2856 64.1617L40.2705 64.1704L40.214 64.1421L40.2316 64.1726Z" fill="#E5106C"/>
<path d="M28.6421 61.3704L26.958 61.0645L26.9279 61.082C25.5666 60.8129 24.6553 59.5131 24.8819 58.1649C25.1086 56.8168 26.3648 55.9292 27.691 56.1374L29.4504 56.3997C30.8155 56.6057 31.7657 57.9034 31.5717 59.2732C31.3777 60.6431 30.0938 61.5872 28.7287 61.3813C28.7287 61.3813 28.7048 61.3747 28.681 61.3682L28.6333 61.3552L28.6421 61.3704Z" fill="#E5106C"/>
<path d="M16.8103 59.7792L15.106 59.6473L15.0759 59.6647C13.8025 59.5478 12.8321 58.4241 12.9231 57.1543C13.0077 55.9084 14.0731 54.9687 15.3114 55.0247L17.0822 55.0979C18.3745 55.1431 19.3901 56.2406 19.3406 57.5474C19.3061 58.8454 18.2219 59.8569 16.9208 59.7966C16.9057 59.8053 16.858 59.7922 16.8429 59.801L16.8128 59.8184L16.8103 59.7792Z" fill="#E5106C"/>
<path d="M4.8766 59.3693L3.17608 59.4178L3.14593 59.4352C1.99049 59.4531 1.02633 58.549 0.99918 57.3879C0.950666 56.2595 1.82139 55.3308 2.91784 55.2455L4.68494 55.1382C5.84417 55.0573 6.86235 55.9505 6.93722 57.1246C7.02716 58.2899 6.14635 59.3057 4.97832 59.3714C4.96325 59.3801 4.93939 59.3736 4.90046 59.3758L4.87031 59.3932L4.8766 59.3693Z" fill="#E5106C"/>
<path d="M8.03715 68.2654L6.30398 68.2922C6.16332 68.2922 6.03904 68.1814 6.02905 68.0248C6.02786 67.8835 6.13717 67.7595 6.2929 67.7508L8.04364 67.7544C8.1843 67.7543 8.30859 67.8652 8.30979 68.0065C8.31098 68.1478 8.20167 68.2718 8.06101 68.2719L8.03715 68.2654Z" fill="#E5106C"/>
<path d="M-2.4472 245.751L-0.746781 245.946L-0.731709 245.937C-0.029699 246.039 0.479936 246.678 0.399271 247.374C0.318605 248.07 -0.313325 248.577 -1.00655 248.49C-1.00655 248.49 -1.03041 248.484 -1.05427 248.477L-2.79861 248.206C-3.47676 248.111 -3.94746 247.469 -3.84294 246.78C-3.7447 246.115 -3.14921 245.649 -2.47984 245.729L-2.46477 245.721L-2.4472 245.751Z" fill="#E5106C"/>
<path d="M9.4608 246.225L11.1563 246.098L11.1865 246.08C12.0192 246.026 12.7473 246.66 12.8148 247.473C12.8911 248.302 12.2653 249.028 11.4565 249.089C11.4565 249.089 11.4176 249.092 11.3937 249.085L9.61532 249.138C8.804 249.16 8.12355 248.539 8.095 247.723C8.06017 246.932 8.65826 246.262 9.42815 246.203L9.45829 246.185L9.4608 246.225Z" fill="#E5106C"/>
<path d="M21.2394 244.451L22.9024 244.059L22.9325 244.041C23.872 243.824 24.8313 244.406 25.0557 245.352C25.2801 246.297 24.7234 247.248 23.7839 247.466C23.7688 247.474 23.7387 247.492 23.7148 247.485L21.9777 247.819C21.0596 248.004 20.1456 247.395 19.9538 246.471C19.7708 245.563 20.3325 244.69 21.2092 244.468L21.2394 244.451Z" fill="#E5106C"/>
<path d="M32.7163 241.078L34.3366 240.508L34.3517 240.499C35.3918 240.142 36.5281 240.683 36.8919 241.731C37.2708 242.77 36.7265 243.916 35.7015 244.264C35.7015 244.264 35.6714 244.281 35.6563 244.29L33.9794 244.832C32.9457 245.165 31.8458 244.583 31.5146 243.557C31.1835 242.531 31.724 241.448 32.71 241.102L32.7402 241.084L32.7163 241.078Z" fill="#E5106C"/>
<path d="M43.8196 236.63L45.3672 235.899L45.3974 235.881C46.4751 235.381 47.756 235.859 48.2541 236.93C48.7523 238.002 48.3109 239.292 47.2331 239.792C47.2331 239.792 47.203 239.81 47.1879 239.818L45.5688 240.53C44.4885 240.991 43.2378 240.496 42.7698 239.407C42.2955 238.342 42.772 237.113 43.7958 236.623L43.8259 236.606L43.8196 236.63Z" fill="#E5106C"/>
<path d="M54.3911 231.094L55.8508 230.21L55.8809 230.193C56.9726 229.542 58.4017 229.894 59.0581 230.996C59.7144 232.098 59.376 233.531 58.2844 234.182C58.2844 234.182 58.2391 234.208 58.2241 234.216L56.6865 235.104C55.5835 235.7 54.1758 235.316 53.5584 234.212C52.9346 233.131 53.2994 231.744 54.3609 231.111L54.3911 231.094Z" fill="#E5106C"/>
<path d="M64.3058 224.521L65.6626 223.494L65.6927 223.477C66.7505 222.663 68.2801 222.875 69.0835 223.954C69.9019 225.023 69.7028 226.558 68.6211 227.365L68.591 227.383L67.15 228.438C66.0746 229.221 64.5752 228.991 63.7719 227.913C62.9924 226.841 63.1939 225.345 64.2455 224.556L64.2756 224.538L64.3058 224.521Z" fill="#E5106C"/>
<path d="M73.3421 216.847L74.5483 215.664L74.5935 215.638C75.5786 214.663 77.1736 214.676 78.1515 215.673C79.1294 216.671 79.115 218.282 78.1299 219.256L78.0998 219.274L76.8032 220.509C75.8094 221.468 74.2119 221.417 73.2641 220.402C72.3251 219.402 72.342 217.83 73.312 216.864L73.3572 216.838L73.3421 216.847Z" fill="#E5106C"/>
<path d="M81.245 208.09L82.2615 206.753L82.3068 206.727C83.1625 205.563 84.8053 205.345 85.9642 206.238C87.1142 207.116 87.3296 208.777 86.465 209.926L86.4349 209.943L85.3215 211.357C84.4244 212.483 82.8029 212.669 81.6742 211.758C80.5543 210.863 80.3503 209.256 81.1997 208.117L81.245 208.09Z" fill="#E5106C"/>
<path d="M87.7092 198.286L88.4821 196.805L88.5098 196.748C89.2149 195.428 90.8403 194.936 92.1662 195.632C93.4859 196.351 93.9888 197.988 93.3076 199.314C93.3076 199.314 93.2774 199.332 93.2862 199.347L92.419 200.943C91.7051 202.248 90.0709 202.725 88.7663 201.997C87.4705 201.284 86.9915 199.654 87.6664 198.351L87.6941 198.295L87.7092 198.286Z" fill="#E5106C"/>
<path d="M92.3844 187.553L92.9075 185.952L92.9264 185.88C93.4117 184.423 94.987 183.636 96.4411 184.135C97.8952 184.635 98.6921 186.224 98.2067 187.681L97.6371 189.409C97.1517 190.866 95.5764 191.654 94.1223 191.155C92.6682 190.655 91.8713 189.066 92.3567 187.609L92.3844 187.553Z" fill="#E5106C"/>
<path d="M95.2644 176.18L95.5251 174.508L95.5288 174.445C95.7668 172.907 97.2015 171.876 98.7185 172.136C100.251 172.388 101.289 173.838 101.042 175.36L100.765 177.143C100.518 178.665 99.0922 179.711 97.5752 179.451C96.0581 179.191 95.005 177.75 95.2518 176.228L95.2556 176.165L95.2644 176.18Z" fill="#E5106C"/>
<path d="M96.3106 164.413L96.3201 162.723L96.3239 162.66C96.3346 161.112 97.5986 159.855 99.1395 159.878C100.681 159.902 101.942 161.182 101.931 162.73L101.929 164.537C101.919 166.085 100.655 167.342 99.1139 167.319C97.5729 167.295 96.3112 166.015 96.3219 164.467L96.3257 164.404L96.3106 164.413Z" fill="#E5106C"/>
<path d="M95.711 152.587L95.502 150.902L95.4756 150.856C95.3004 149.334 96.3472 147.979 97.8518 147.8C99.3326 147.615 100.69 148.678 100.901 150.158L101.148 151.943C101.353 153.448 100.324 154.833 98.8133 155.036C97.3175 155.23 95.9301 154.185 95.716 152.665L95.6809 152.604L95.711 152.587Z" fill="#E5106C"/>
<path d="M93.5293 140.899L93.0955 139.243L93.0691 139.197C92.7042 137.764 93.5488 136.303 94.9719 135.948C96.3711 135.586 97.8238 136.432 98.2101 137.832L98.6879 139.564C99.0917 140.995 98.2471 142.456 96.8416 142.842C95.421 143.236 93.9595 142.375 93.5644 140.96L93.5381 140.915L93.5293 140.899Z" fill="#E5106C"/>
<path d="M89.9101 129.518L89.2928 127.926L89.2665 127.881C88.7684 126.565 89.4007 125.085 90.697 124.58C91.9783 124.083 93.4248 124.709 93.9593 125.983L94.6506 127.633C95.2027 128.937 94.603 130.44 93.2941 130.993C92.0003 131.537 90.4998 130.922 89.9389 129.602C89.9301 129.587 89.9213 129.572 89.9126 129.557L89.8862 129.511L89.9101 129.518Z" fill="#E5106C"/>
<path d="M84.9962 118.604L84.2043 117.093L84.1867 117.063C83.5819 115.91 84.022 114.48 85.1639 113.881C86.2756 113.3 87.662 113.717 88.2857 114.797L89.1818 116.35C89.8494 117.506 89.4809 118.956 88.3352 119.618C87.1895 120.279 85.7341 119.882 85.0752 118.741C85.0577 118.71 85.0401 118.68 85.0313 118.665L85.0049 118.619L84.9962 118.604Z" fill="#E5106C"/>
<path d="M78.8821 108.293L77.9094 106.887L77.8918 106.856C77.2366 105.895 77.4746 104.602 78.4017 103.945C79.3225 103.311 80.5708 103.524 81.2449 104.413L82.3281 105.837C83.0373 106.787 82.8559 108.109 81.925 108.829C80.9853 109.534 79.6679 109.341 78.9436 108.399C78.9261 108.369 78.9173 108.354 78.8997 108.323L78.8821 108.293Z" fill="#E5106C"/>
<path d="M71.6075 98.7183L70.4777 97.4229L70.4602 97.3925C69.82 96.6665 69.8907 95.5707 70.6018 94.9572C71.2979 94.3525 72.3327 94.4043 72.9679 95.0519L74.2208 96.3168C74.9062 97.0167 74.9158 98.1473 74.2097 98.839C73.5187 99.522 72.3934 99.5225 71.6992 98.8074C71.6816 98.777 71.664 98.7465 71.6314 98.7248L71.6138 98.6944L71.6075 98.7183Z" fill="#E5106C"/>
<path d="M63.1919 90.0651L61.9076 88.9198C61.3276 88.4026 61.2639 87.5264 61.7589 86.9565C62.2326 86.4193 63.0565 86.3494 63.6316 86.7883L65.0302 87.8879C65.6554 88.3791 65.7668 89.2683 65.283 89.8925C64.7993 90.5167 63.9151 90.6214 63.2898 90.1303C63.281 90.1151 63.2484 90.0934 63.2245 90.0868L63.207 90.0564L63.1919 90.0651Z" fill="#E5106C"/>
<path d="M53.708 82.5771L52.2717 81.621C51.782 81.2951 51.6466 80.6428 51.9759 80.1687C52.275 79.712 52.8841 79.5835 53.3625 79.8551L54.8893 80.7589C55.4091 81.0674 55.5772 81.7414 55.2806 82.2373C54.9777 82.757 54.3082 82.9204 53.8122 82.6184C53.8122 82.6184 53.7796 82.5966 53.7708 82.5814L53.708 82.5771Z" fill="#E5106C"/>
<path d="M43.2556 76.4585L41.691 75.6981C41.3282 75.5222 41.1839 75.0982 41.341 74.7438C41.507 74.4045 41.9039 74.2565 42.2492 74.402L43.8716 75.0884C44.2646 75.247 44.4415 75.6926 44.2781 76.071C44.1234 76.4646 43.6813 76.6388 43.3033 76.4715C43.3033 76.4715 43.2945 76.4563 43.2707 76.4498L43.2556 76.4585Z" fill="#E5106C"/>
<path d="M32.0045 71.9365L30.3469 71.4328C30.0995 71.3525 29.9502 71.0938 30.0281 70.8459C30.091 70.6067 30.3473 70.4587 30.5859 70.5239L32.2799 70.9863C32.5424 71.0579 32.7005 71.3318 32.6313 71.5949C32.5621 71.858 32.2908 72.0147 32.0283 71.9431L32.0045 71.9365Z" fill="#E5106C"/>
<path d="M20.169 69.1928L18.4422 68.9522C18.2689 68.9305 18.1334 68.7653 18.1535 68.5914C18.1737 68.4175 18.337 68.2826 18.5103 68.3043L20.2434 68.521C20.4318 68.5339 20.5523 68.7078 20.5409 68.897C20.5295 69.0861 20.3574 69.2058 20.169 69.1928Z" fill="#E5106C"/>
<path d="M77.9976 134.299L77.3603 132.638C77.305 132.508 77.3729 132.347 77.5174 132.284C77.6468 132.229 77.8075 132.299 77.8715 132.445L78.4937 134.114C78.5489 134.245 78.481 134.406 78.3429 134.445C78.2135 134.499 78.0528 134.43 78.0126 134.291L77.9976 134.299Z" fill="#E5106C"/>
<path d="M73.0594 122.927L72.2475 121.346C72.1508 121.179 72.2162 120.979 72.382 120.883C72.5479 120.788 72.7475 120.855 72.8442 121.022L73.6259 122.62C73.7138 122.772 73.6333 122.981 73.4738 123.053C73.323 123.14 73.1146 123.057 73.0418 122.896L73.0594 122.927Z" fill="#E5106C"/>
<path d="M66.7766 112.251L65.7775 110.799C65.6043 110.533 65.6597 110.177 65.9072 110.014C66.1698 109.842 66.5101 109.909 66.6745 110.159C66.6745 110.159 66.6745 110.159 66.6833 110.174L67.6547 111.683C67.8041 111.941 67.7462 112.259 67.4899 112.407C67.2487 112.546 66.941 112.501 66.7854 112.266L66.7766 112.251Z" fill="#E5106C"/>
<path d="M59.0387 102.679L57.8097 101.42C57.4406 101.025 57.4421 100.436 57.809 100.061C58.1846 99.7025 58.7711 99.7088 59.1314 100.089C59.1402 100.104 59.149 100.12 59.1578 100.135L60.3315 101.506C60.6441 101.874 60.6099 102.441 60.2468 102.752C59.8988 103.055 59.3663 103.037 59.0475 102.694L59.0387 102.679Z" fill="#E5106C"/>
<path d="M49.9075 94.5621L48.4988 93.5495L48.4812 93.5191C47.8761 93.0975 47.7219 92.2735 48.1605 91.6754C48.599 91.0773 49.4117 90.9531 49.993 91.3681C50.0017 91.3833 50.0344 91.4051 50.0583 91.4116L51.4594 92.5503C51.9955 92.9915 52.0931 93.7872 51.652 94.3462C51.2324 94.8725 50.48 94.962 49.9401 94.5839L49.9226 94.5534L49.9075 94.5621Z" fill="#E5106C"/>
<path d="M39.518 88.362L37.9497 87.6647L37.902 87.6517C37.0331 87.2607 36.6391 86.2302 37.0213 85.3604C37.4034 84.4905 38.4259 84.1031 39.2948 84.4941C39.3275 84.5158 39.3601 84.5375 39.3991 84.5353L41.0163 85.387C41.8249 85.8128 42.1473 86.8237 41.73 87.6327C41.319 88.4178 40.3933 88.7291 39.5896 88.3815L39.5331 88.3533L39.518 88.362Z" fill="#E5106C"/>
<path d="M28.2024 84.3938L26.5435 83.9922L26.4957 83.9792C25.3768 83.7122 24.6966 82.6037 24.9382 81.4903C25.1949 80.3683 26.284 79.6786 27.4029 79.9456C27.4268 79.9521 27.4506 79.9586 27.4745 79.9651L29.225 80.4558C30.3075 80.7641 30.9488 81.8749 30.6658 82.9512C30.389 84.0037 29.3275 84.6368 28.2651 84.3981L28.1936 84.3786L28.2024 84.3938Z" fill="#E5106C"/>
<path d="M16.3931 82.6028L14.6914 82.51L14.6286 82.5057C13.3815 82.4345 12.4136 81.3499 12.4744 80.0975C12.5352 78.8451 13.6069 77.8815 14.854 77.9527C14.854 77.9527 14.8691 77.944 14.893 77.9505L16.6989 78.0846C17.9397 78.1797 18.8837 79.2578 18.799 80.5037C18.7207 81.7256 17.6703 82.6566 16.4471 82.5919L16.3843 82.5876L16.3931 82.6028Z" fill="#E5106C"/>
<path d="M4.20361 82.2417L2.46795 82.2294L2.45287 82.2381C1.15427 82.2169 0.0934784 81.1454 0.104065 79.8409C0.099577 78.545 1.1424 77.4966 2.43222 77.5026L4.22189 77.504C5.52677 77.5013 6.58758 78.5728 6.577 79.8773C6.59027 81.1884 5.53235 82.2455 4.23375 82.2243L4.2099 82.2178L4.20361 82.2417Z" fill="#E5106C"/>
<path d="M2.32146 230.17L4.0082 230.028L4.07099 230.032C5.602 229.899 6.94911 231.048 7.09416 232.588C7.23921 234.127 6.10582 235.471 4.57481 235.604L2.74742 235.746C1.21641 235.88 -0.130706 234.73 -0.275754 233.191C-0.420803 231.651 0.712582 230.307 2.24359 230.174L2.30638 230.178L2.32146 230.17Z" fill="#E5106C"/>
<path d="M14.2529 228.559L15.9598 228.243L15.9749 228.234C17.4896 227.968 18.9524 228.97 19.2444 230.485C19.5364 232 18.536 233.471 17.0301 233.752L15.2692 234.079C13.7632 234.36 12.2917 233.343 12.0148 231.819C11.7228 230.303 12.7231 228.833 14.2378 228.567L14.2529 228.559Z" fill="#E5106C"/>
<path d="M26.1694 226.077L27.8625 225.667L27.8776 225.659C29.3785 225.299 30.899 226.227 31.2689 227.738C31.6388 229.249 30.7276 230.769 29.2267 231.128L27.4946 231.54C25.9936 231.899 24.4882 230.963 24.1183 229.452C23.7485 227.941 24.6684 226.436 26.1694 226.077Z" fill="#E5106C"/>
<path d="M37.7885 222.883L39.4026 222.336L39.4478 222.31C40.8936 221.82 42.4908 222.602 42.99 224.059C43.4805 225.5 42.7363 227.066 41.3232 227.578L39.6124 228.2C38.1604 228.714 36.5569 227.956 36.0187 226.501C35.4956 225.038 36.2373 223.433 37.6805 222.904C37.6805 222.904 37.6956 222.896 37.7107 222.887L37.771 222.852L37.7885 222.883Z" fill="#E5106C"/>
<path d="M48.7508 218.299L50.2394 217.5L50.2997 217.466C51.6074 216.771 53.226 217.277 53.9187 218.582C54.6115 219.886 54.1511 221.491 52.8761 222.206L51.2757 223.09C49.9856 223.814 48.3456 223.341 47.6051 222.024C46.8735 220.722 47.3313 219.078 48.6365 218.345C48.6365 218.345 48.6516 218.336 48.6666 218.327L48.742 218.284L48.7508 218.299Z" fill="#E5106C"/>
<path d="M58.6509 211.913L59.9512 210.858L60.0265 210.814C61.1032 209.929 62.6843 210.092 63.5743 211.18C64.4317 212.248 64.3042 213.802 63.2903 214.692L61.907 215.917C60.8567 216.848 59.2241 216.735 58.3039 215.664C57.3838 214.592 57.4674 212.962 58.5265 212.046C58.5566 212.028 58.5717 212.02 58.6019 212.002L58.6772 211.959L58.6509 211.913Z" fill="#E5106C"/>
<path d="M67.0352 203.667L68.0844 202.352L68.1272 202.286C68.8937 201.316 70.3142 201.166 71.2708 201.952C72.2099 202.709 72.3815 204.05 71.7079 205.007L70.6473 206.512C69.9159 207.543 68.4853 207.78 67.4382 207.046C66.4062 206.303 66.1581 204.864 66.8807 203.817C66.902 203.785 66.9234 203.752 66.9599 203.711L67.0026 203.646L67.0352 203.667Z" fill="#E5106C"/>
<path d="M73.5649 193.746L74.3505 192.217L74.3781 192.16C74.8293 191.271 75.9171 190.927 76.8061 191.387C77.6474 191.835 78.0087 192.844 77.6654 193.711L76.9677 195.392C76.5755 196.349 75.4713 196.804 74.507 196.387C73.5426 195.97 73.0897 194.872 73.497 193.907C73.5096 193.859 73.5309 193.826 73.5586 193.77L73.5862 193.713L73.5649 193.746Z" fill="#E5106C"/>
<path d="M78.2091 182.604L78.7209 180.949L78.736 180.941C78.9485 180.23 79.6897 179.842 80.3753 180.055C81.0371 180.261 81.4173 180.955 81.2802 181.622L80.8838 183.373C80.7127 184.121 79.9615 184.595 79.2156 184.417C78.4696 184.239 77.9914 183.48 78.1626 182.732C78.1601 182.693 78.1814 182.661 78.1877 182.637L78.2028 182.628L78.2091 182.604Z" fill="#E5106C"/>
<path d="M81.1026 170.73L81.3909 169.001C81.469 168.51 81.925 168.186 82.3997 168.277C82.8506 168.362 83.1744 168.783 83.1328 169.233L82.9575 171.019C82.9121 171.532 82.4522 171.919 81.9323 171.854C81.4124 171.789 81.032 171.339 81.0925 170.817C81.0837 170.802 81.1051 170.769 81.0963 170.754L81.1026 170.73Z" fill="#E5106C"/>
<path d="M82.2943 158.515L82.2687 156.765C82.2575 156.467 82.5 156.225 82.7813 156.225C83.0627 156.225 83.2962 156.456 83.3136 156.729L83.3958 158.508C83.4158 158.821 83.167 159.086 82.8555 159.104C82.544 159.122 82.2779 158.869 82.2579 158.556L82.2943 158.515Z" fill="#E5106C"/>
<path d="M81.2363 146.249L80.8991 144.516C80.8565 144.338 80.9696 144.151 81.1467 144.11C81.3238 144.068 81.5109 144.183 81.5472 144.386L81.9082 146.125C81.9596 146.318 81.8227 146.499 81.6456 146.54C81.4685 146.582 81.2726 146.451 81.23 146.273L81.2363 146.249Z" fill="#E5106C"/>
<path d="M3.4553 217.756L5.15713 217.605L5.20235 217.579C6.45453 217.485 7.56813 218.404 7.69571 219.669C7.81451 220.92 6.90854 222.031 5.65007 222.149C5.65007 222.149 5.61993 222.166 5.61114 222.151L3.81388 222.276C2.57678 222.361 1.49332 221.424 1.39838 220.181C1.31223 218.952 2.20562 217.889 3.42516 217.773L3.47038 217.747L3.4553 217.756Z" fill="#E5106C"/>
<path d="M15.2931 215.908L16.9561 215.516L17.0013 215.49C18.2649 215.207 19.5267 216 19.8339 217.263C20.1411 218.526 19.3619 219.788 18.1222 220.077L16.3751 220.498C15.1203 220.796 13.8433 220.012 13.5362 218.749C13.229 217.486 13.9994 216.209 15.2542 215.911L15.3082 215.9L15.2931 215.908Z" fill="#E5106C"/>
<path d="M26.7173 212.44L28.3025 211.809L28.3477 211.783C29.4908 211.326 30.8093 211.904 31.2735 213.056C31.7289 214.193 31.2009 215.472 30.0992 215.966L28.4349 216.703C27.2792 217.208 25.9482 216.678 25.4362 215.513C24.9243 214.348 25.441 213.015 26.5967 212.51C26.6118 212.501 26.6268 212.493 26.6419 212.484L26.7022 212.449L26.7173 212.44Z" fill="#E5106C"/>
<path d="M37.3722 207.159L38.7905 206.239L38.8508 206.204C39.7591 205.619 40.9948 205.879 41.5847 206.796C42.157 207.683 41.9355 208.866 41.0988 209.471L39.6277 210.543C38.7244 211.207 37.4523 210.988 36.7933 210.09C36.1255 209.177 36.3333 207.901 37.2215 207.246C37.2516 207.229 37.2818 207.211 37.3119 207.194L37.3722 207.159Z" fill="#E5106C"/>
<path d="M46.7603 199.809L47.9878 198.593L48.033 198.567C48.6638 197.918 49.6961 197.931 50.3313 198.579C50.9339 199.205 50.9574 200.185 50.3806 200.823L49.1694 202.171C48.5412 202.858 47.4812 202.902 46.8007 202.281C46.1115 201.644 46.0592 200.579 46.6723 199.9C46.7025 199.883 46.7176 199.874 46.7389 199.841L46.7841 199.815L46.7603 199.809Z" fill="#E5106C"/>
<path d="M54.7043 190.696L55.7159 189.28L55.731 189.271C56.1394 188.69 56.937 188.575 57.4944 188.983C58.0431 189.377 58.1709 190.155 57.8228 190.701L56.8639 192.208C56.473 192.819 55.6566 193.006 55.0364 192.594C54.4249 192.196 54.2318 191.374 54.6377 190.754C54.6528 190.746 54.6591 190.722 54.6805 190.689L54.7106 190.672L54.7043 190.696Z" fill="#E5106C"/>
<path d="M61.2168 180.387L62.0325 178.84C62.2751 178.355 62.8579 178.181 63.3275 178.438C63.7883 178.679 63.9815 179.257 63.7452 179.718L62.9797 181.316C62.7459 181.817 62.1417 182.023 61.657 181.776C61.1573 181.537 60.9465 180.928 61.1891 180.443C61.1891 180.443 61.1891 180.443 61.2042 180.434L61.2168 180.387Z" fill="#E5106C"/>
<path d="M66.3667 169.26L66.989 167.622C67.1412 167.189 67.6285 166.989 68.0454 167.154C68.4623 167.319 68.6719 167.787 68.5197 168.219L67.8999 169.896C67.7477 170.329 67.2691 170.544 66.8284 170.373C66.3876 170.201 66.1781 169.734 66.3453 169.292L66.3667 169.26Z" fill="#E5106C"/>
<path d="M70.1232 157.598L70.5221 155.887C70.6177 155.426 71.0549 155.173 71.4906 155.266C71.9352 155.375 72.205 155.808 72.1006 156.253L71.6804 157.997C71.5672 158.428 71.1388 158.695 70.7093 158.578C70.2799 158.461 70.01 158.028 70.1082 157.607L70.1232 157.598Z" fill="#E5106C"/>
<path d="M71.9376 145.493L71.9986 143.753C72.0026 143.203 72.4385 142.809 72.956 142.835C73.4734 142.861 73.8839 143.294 73.8623 143.813C73.8623 143.813 73.8623 143.813 73.8711 143.829L73.7674 145.633C73.737 146.138 73.3161 146.523 72.8138 146.488C72.3114 146.454 71.9487 146.034 71.9639 145.538L71.9464 145.508L71.9376 145.493Z" fill="#E5106C"/>
<path d="M70.902 133.427L70.4682 131.771L70.4418 131.725C70.2914 131.082 70.6647 130.44 71.2952 130.279C71.9257 130.118 72.5673 130.498 72.7416 131.148C72.7416 131.148 72.7592 131.179 72.768 131.194L73.1553 132.979C73.2882 133.592 72.8974 134.203 72.2731 134.34C71.679 134.46 71.0851 134.093 70.9221 133.497L70.8958 133.451L70.902 133.427Z" fill="#E5106C"/>
<path d="M66.2123 122.476L65.2244 121.079L65.1893 121.018C64.701 120.346 64.8685 119.418 65.5418 118.948C66.2152 118.478 67.1319 118.638 67.6051 119.319C67.6139 119.334 67.6315 119.364 67.649 119.395L68.6318 120.958C69.0572 121.625 68.8484 122.517 68.1876 122.939C67.5419 123.352 66.6942 123.172 66.2562 122.552L66.2211 122.492L66.2123 122.476Z" fill="#E5106C"/>
<path d="M58.1651 113.594L56.8443 112.49L56.8268 112.46C56.0358 111.821 55.9308 110.664 56.5779 109.905C57.2162 109.131 58.3666 109.035 59.1275 109.691C59.145 109.721 59.1777 109.743 59.2015 109.75L60.5235 110.995C61.2303 111.662 61.2788 112.791 60.6204 113.495C59.9771 114.191 58.9171 114.235 58.1914 113.64L58.1651 113.594Z" fill="#E5106C"/>
<path d="M48.4088 106.447L46.9448 105.548L46.9273 105.517C45.9203 104.922 45.6043 103.644 46.1975 102.652C46.7907 101.66 48.0606 101.353 49.0525 101.957C49.0613 101.973 49.0939 101.994 49.1178 102.001L50.6433 103.007C51.59 103.637 51.867 104.917 51.2474 105.864C50.6429 106.801 49.4246 107.058 48.4741 106.491L48.4478 106.445L48.4088 106.447Z" fill="#E5106C"/>
<path d="M37.7337 100.862L36.1528 100.212L36.1051 100.199C34.926 99.7235 34.3627 98.3649 34.8266 97.1841C35.2905 96.0032 36.6383 95.4482 37.8174 95.9239C37.8262 95.9391 37.8739 95.9522 37.8978 95.9587L39.5553 96.7059C40.6979 97.2229 41.2136 98.5686 40.7082 99.7125C40.2091 100.832 38.9216 101.353 37.7902 100.89L37.7337 100.862Z" fill="#E5106C"/>
<path d="M26.3752 97.0319L24.7163 96.6303L24.6686 96.6173C23.3437 96.3069 22.5166 94.9788 22.8236 93.6654C23.1218 92.3368 24.4371 91.5166 25.7469 91.8357C25.7469 91.8357 25.7858 91.8335 25.7946 91.8487L27.5665 92.3067C28.87 92.6497 29.6581 93.98 29.3424 95.2782C29.0178 96.5612 27.7239 97.3488 26.4468 97.0514L26.384 97.0471L26.3752 97.0319Z" fill="#E5106C"/>
<path d="M14.6024 95.1644L12.9158 95.0629L12.853 95.0586C11.4414 94.9809 10.3317 93.7551 10.3976 92.3374C10.4635 90.9198 11.6746 89.8148 13.0862 89.8925C13.0862 89.8925 13.1252 89.8903 13.134 89.9055L14.9638 90.046C16.3691 90.1477 17.4248 91.3844 17.335 92.7955C17.2365 94.1914 16.053 95.2399 14.6652 95.1687L14.6024 95.1644Z" fill="#E5106C"/>
<path d="M2.74431 95.4456L1.06257 95.6659L1.01734 95.692C-0.472236 95.8622 -1.82942 94.7995 -2.02598 93.3103C-2.22255 91.821 -1.19089 90.4747 0.289897 90.2893C0.289897 90.2893 0.320045 90.2719 0.343904 90.2784L2.16003 90.0819C3.63453 89.9204 4.96158 91.0005 5.12549 92.468C5.28941 93.9356 4.27034 95.234 2.82848 95.4173L2.75061 95.4217L2.74431 95.4456Z" fill="#E5106C"/>
<path d="M5.84301 205.214L7.55492 204.976C8.05856 204.909 8.503 205.261 8.58946 205.758C8.66712 206.241 8.34417 206.691 7.87317 206.781L6.15119 207.105C5.64125 207.197 5.14279 206.856 5.04755 206.343C4.95232 205.83 5.28785 205.332 5.79779 205.24C5.79779 205.24 5.81286 205.231 5.82794 205.223L5.84301 205.214Z" fill="#E5106C"/>
<path d="M17.6482 202.824L19.2974 202.339C19.7119 202.221 20.1489 202.456 20.2781 202.888C20.3985 203.306 20.1684 203.743 19.7539 203.86L18.0746 204.363C17.6601 204.481 17.2081 204.255 17.0789 203.822C16.9585 203.405 17.1797 202.953 17.6093 202.826L17.6482 202.824Z" fill="#E5106C"/>
<path d="M28.8725 198.555L30.385 197.763L30.4001 197.754C30.8309 197.526 31.3734 197.7 31.6043 198.134C31.8352 198.569 31.6667 199.113 31.2358 199.341C31.2358 199.341 31.2208 199.35 31.2057 199.359L29.6129 200.116C29.1883 200.321 28.676 200.129 28.4689 199.701C28.2619 199.273 28.4329 198.769 28.8424 198.573L28.8725 198.555Z" fill="#E5106C"/>
<path d="M38.8352 192.033L40.0916 190.902L40.1217 190.884C40.6092 190.441 41.3389 190.486 41.7845 190.979C42.2301 191.473 42.1758 192.214 41.7034 192.649C41.6883 192.658 41.6582 192.675 41.6431 192.684L40.2524 193.791C39.7687 194.172 39.0604 194.094 38.6775 193.605C38.3035 193.131 38.354 192.453 38.805 192.05L38.8503 192.024L38.8352 192.033Z" fill="#E5106C"/>
<path d="M46.5112 183.155L47.3645 181.709L47.3922 181.653C47.8295 180.913 48.7841 180.687 49.5149 181.117C50.2544 181.562 50.4876 182.523 50.0653 183.254C50.0352 183.271 50.0226 183.319 50.0163 183.343L48.9859 184.831C48.5134 185.509 47.6015 185.671 46.9072 185.199C46.2606 184.741 46.0801 183.871 46.4596 183.205L46.5024 183.14L46.5112 183.155Z" fill="#E5106C"/>
<path d="M51.392 172.424L51.9063 170.808L51.9189 170.76C52.2434 169.721 53.3488 169.164 54.371 169.507C55.3931 169.85 55.9716 170.956 55.6384 171.981C55.6258 172.028 55.6045 172.061 55.5919 172.109L54.9482 173.779C54.5647 174.751 53.4694 175.221 52.4836 174.837C51.5456 174.465 51.0651 173.424 51.3644 172.48L51.3769 172.432L51.392 172.424Z" fill="#E5106C"/>
<path d="M54.2908 160.909L54.5515 159.237L54.564 159.189C54.7441 157.969 55.8949 157.142 57.1042 157.357C58.3199 157.548 59.1521 158.711 58.9481 159.924C58.9418 159.948 58.9292 159.996 58.9229 160.02L58.5743 161.783C58.3377 162.975 57.182 163.723 55.994 163.476C54.8449 163.226 54.0868 162.122 54.2719 160.981L54.2757 160.918L54.2908 160.909Z" fill="#E5106C"/>
<path d="M55.2295 149.172L55.185 147.493L55.18 147.415C55.1404 146.059 56.2108 144.954 57.5459 144.933C58.896 144.905 60.0045 145.989 60.0354 147.331C60.0354 147.331 60.0379 147.37 60.0316 147.394L60.0384 149.216C60.0453 150.551 58.9573 151.625 57.6285 151.621C56.3149 151.609 55.2478 150.561 55.2106 149.244L55.2056 149.165L55.2295 149.172Z" fill="#E5106C"/>
<path d="M53.8064 137.613L53.3688 136.02L53.3249 135.944C52.9776 134.542 53.7857 133.121 55.1611 132.753C56.5364 132.385 57.9565 133.209 58.3428 134.609C58.3428 134.609 58.3691 134.655 58.3628 134.679L58.7979 136.476C59.1364 137.863 58.2869 139.247 56.9178 139.591C55.555 139.911 54.1977 139.092 53.8227 137.746L53.8002 137.637L53.8064 137.613Z" fill="#E5106C"/>
<path d="M49.4556 127.085L48.572 125.728L48.5105 125.622C47.6708 124.341 48.0395 122.648 49.292 121.823C50.5445 120.998 52.2486 121.374 53.0882 122.654C53.097 122.669 53.1146 122.7 53.1234 122.715L54.1086 124.317C54.8943 125.608 54.5168 127.287 53.238 128.066C51.9742 128.836 50.348 128.456 49.5346 127.222L49.4644 127.1L49.4556 127.085Z" fill="#E5106C"/>
<path d="M42.0931 118.476L40.8313 117.439L40.7485 117.365C39.552 116.372 39.3769 114.606 40.3558 113.412C41.3346 112.218 43.0904 112.057 44.2869 113.05L45.7232 114.249C46.9196 115.243 47.0797 117.017 46.092 118.196C45.1132 119.39 43.3486 119.536 42.1672 118.534L42.0843 118.46L42.0931 118.476Z" fill="#E5106C"/>
<path d="M32.5013 112.205L31.0108 111.503L30.9217 111.453C29.5354 110.793 28.9458 109.145 29.5769 107.767C30.2167 106.403 31.8195 105.802 33.1881 106.432L34.8695 107.186C36.2771 107.814 36.9056 109.459 36.2922 110.869C35.6787 112.278 34.0458 112.896 32.6382 112.268C32.6382 112.268 32.6294 112.253 32.6055 112.246L32.5164 112.196L32.5013 112.205Z" fill="#E5106C"/>
<path d="M21.5895 108.278L19.9721 107.914L19.9005 107.894C18.489 107.573 17.5703 106.156 17.8936 104.731C18.2019 103.316 19.5838 102.437 20.9777 102.728L22.7597 103.099C24.1926 103.387 25.1352 104.811 24.8595 106.248C24.5839 107.686 23.1744 108.621 21.7566 108.324C21.7566 108.324 21.7327 108.317 21.7089 108.311L21.6222 108.3L21.5895 108.278Z" fill="#E5106C"/>
<path d="M10.041 106.544L8.36317 106.458L8.30038 106.454C6.99928 106.393 5.97491 105.281 6.01565 103.959C6.06766 102.691 7.09792 101.69 8.35509 101.675L10.1598 101.667C11.5037 101.663 12.6034 102.732 12.6192 104.082C12.6349 105.432 11.5795 106.529 10.2357 106.533C10.1968 106.536 10.1578 106.538 10.1101 106.525L10.0473 106.52L10.041 106.544Z" fill="#E5106C"/>
<path d="M-1.72674 106.806L-3.4022 107.002L-3.44742 107.029C-4.49615 107.127 -5.42647 106.386 -5.56293 105.349C-5.68812 104.366 -5.03342 103.481 -4.10899 103.272L-2.35936 102.891C-1.28797 102.657 -0.228259 103.344 0.00364436 104.407C0.235548 105.47 -0.430538 106.545 -1.48685 106.769C-1.54086 106.78 -1.60994 106.8 -1.67273 106.795L-1.71795 106.821L-1.72674 106.806Z" fill="#E5106C"/>
<path d="M3.50415 117.476L1.79106 117.572C1.63532 117.581 1.51103 117.47 1.50983 117.329C1.49985 117.172 1.60916 117.048 1.74982 117.048L3.48678 116.958C3.62744 116.958 3.75173 117.069 3.768 117.202C3.7692 117.343 3.65989 117.467 3.52801 117.482L3.50415 117.476Z" fill="#E5106C"/>
<path d="M3.59232 192.511L5.19251 192.114L5.2528 192.08C6.15338 191.864 7.08001 192.424 7.31701 193.322C7.554 194.22 7.00353 195.147 6.11174 195.378C6.06652 195.404 6.00373 195.399 5.96479 195.401L4.19259 195.674C3.32596 195.809 2.49857 195.212 2.34822 194.325C2.20916 193.492 2.73068 192.724 3.51445 192.515L3.58982 192.472L3.59232 192.511Z" fill="#E5106C"/>
<path d="M14.5344 188.59L16.028 187.87L16.0732 187.844C17.1422 187.328 18.4444 187.773 18.9752 188.867C19.4972 189.945 19.0646 191.25 17.9956 191.765C17.9504 191.791 17.9052 191.818 17.86 191.844L16.2145 192.51C15.1405 192.947 13.9112 192.419 13.4821 191.328C13.0643 190.291 13.5131 189.119 14.4917 188.655L14.552 188.621L14.5344 188.59Z" fill="#E5106C"/>
<path d="M24.5171 182.764L25.8375 181.779L25.8978 181.744C26.9707 180.922 28.494 181.158 29.3061 182.251C30.1182 183.345 29.9104 184.865 28.8287 185.672C28.7985 185.689 28.7684 185.707 28.7533 185.715L27.2709 186.733C26.178 187.486 24.6911 187.208 23.9179 186.113C23.1774 185.039 23.4204 183.58 24.4417 182.808L24.5171 182.764Z" fill="#E5106C"/>
<path d="M32.8233 175.003L33.8211 173.737L33.8939 173.655C34.7974 172.504 36.4578 172.317 37.6103 173.234C38.7629 174.151 38.9631 175.82 38.0597 176.971C38.0446 176.98 38.0232 177.012 38.0169 177.036L36.8408 178.446C35.911 179.551 34.2632 179.69 33.1408 178.756C32.0423 177.828 31.8771 176.219 32.7593 175.101L32.8233 175.003Z" fill="#E5106C"/>
<path d="M38.2887 165.397L38.7866 163.892L38.8244 163.749C39.3098 162.292 40.885 161.504 42.3391 162.004C43.7933 162.503 44.5901 164.092 44.1047 165.549L43.5074 167.334C43.022 168.791 41.438 169.564 39.9839 169.064C38.5298 168.565 37.748 166.967 38.2334 165.51L38.2799 165.382L38.2887 165.397Z" fill="#E5106C"/>
<path d="M40.1453 154.506L40.1146 152.921L40.1134 152.78C40.0789 151.258 41.2888 150.012 42.8034 149.989C44.303 149.976 45.527 151.156 45.598 152.636L45.6851 154.493C45.7523 156.037 44.5687 157.329 43.0478 157.375C41.5118 157.43 40.2162 156.231 40.1578 154.702C40.149 154.687 40.1553 154.663 40.1616 154.639L40.1604 154.498L40.1453 154.506Z" fill="#E5106C"/>
<path d="M38.3819 143.451L37.8626 141.925L37.8011 141.818C37.3721 140.484 38.0848 139.037 39.4012 138.602C40.6636 138.177 42.0498 138.838 42.5579 140.066L43.2606 141.77C43.8063 143.099 43.1765 144.619 41.85 145.141C40.5324 145.679 39.0142 145.034 38.4835 143.697C38.4572 143.651 38.4308 143.605 38.4195 143.551L38.3668 143.46L38.3819 143.451Z" fill="#E5106C"/>
<path d="M33.4565 133.217L32.534 131.863L32.4813 131.772C31.8612 130.872 32.0715 129.635 32.971 129.034C33.7951 128.477 34.8977 128.612 35.5467 129.353L36.7744 130.714C37.5565 131.581 37.5007 132.911 36.6438 133.69C35.787 134.469 34.462 134.402 33.68 133.535C33.621 133.467 33.562 133.4 33.518 133.324L33.4741 133.248L33.4565 133.217Z" fill="#E5106C"/>
<path d="M25.6711 124.639L24.3402 123.622L24.3139 123.576C23.7828 123.213 23.6813 122.48 24.0558 121.98C24.4089 121.513 25.0419 121.391 25.5291 121.677L27.1011 122.555C27.7252 122.905 27.9308 123.679 27.6028 124.294C27.2747 124.91 26.491 125.119 25.8757 124.784C25.8192 124.756 25.7778 124.719 25.7451 124.697L25.7188 124.652L25.6711 124.639Z" fill="#E5106C"/>
<path d="M15.3128 119.057L13.6728 118.584C13.4015 118.497 13.2585 118.214 13.3214 117.975C13.3994 117.727 13.6406 117.588 13.8942 117.645L15.6134 118.011C15.9148 118.081 16.0968 118.361 16.0452 118.655C15.9936 118.948 15.7009 119.137 15.4082 119.083C15.4082 119.083 15.3844 119.077 15.3605 119.07L15.3455 119.079L15.3128 119.057Z" fill="#E5106C"/>
<path d="M32.4126 144.33L31.7753 142.669C31.7113 142.524 31.7792 142.363 31.9236 142.299C32.053 142.245 32.2138 142.315 32.2777 142.46L32.9176 144.16C32.9728 144.291 32.9049 144.452 32.7667 144.491C32.6373 144.545 32.4766 144.476 32.4365 144.337L32.4126 144.33Z" fill="#E5106C"/>
<path d="M25.7318 134.051L24.3809 132.964L24.3457 132.903C23.9515 132.603 23.8776 132.058 24.1817 131.679C24.4858 131.301 25.0372 131.246 25.4163 131.555C25.4339 131.585 25.4904 131.613 25.5079 131.644L26.7834 133.018C27.0608 133.324 27.043 133.781 26.749 134.072C26.4764 134.331 26.0695 134.322 25.782 134.103L25.7556 134.057L25.7318 134.051Z" fill="#E5106C"/>
<path d="M15.0265 129.296L13.3826 129.13L13.272 129.112C12.2021 129 11.4062 128.039 11.5009 126.949C11.5955 125.86 12.5541 125.084 13.6391 125.187C13.7409 125.19 13.8514 125.207 13.9468 125.233L15.8142 125.717C16.7836 125.969 17.3634 126.973 17.1206 127.945C16.903 128.821 16.0789 129.378 15.2061 129.294L15.0566 129.279L15.0265 129.296Z" fill="#E5106C"/>
<path d="M3.17717 129.521L1.47536 129.671L1.39749 129.676C0.11516 129.787 -1.03987 128.831 -1.14609 127.533C-1.26737 126.244 -0.34634 125.124 0.927203 124.997L2.76719 124.807C4.05581 124.672 5.22592 125.619 5.35599 126.924C5.50114 128.22 4.56752 129.388 3.27012 129.508C3.27012 129.508 3.27012 129.508 3.25504 129.516L3.17717 129.521Z" fill="#E5106C"/>
<path d="M-5.03946 178.475L-3.33654 178.709L-3.27375 178.714C-1.768 178.92 -0.717387 180.322 -0.910166 181.833C-1.10294 183.344 -2.4899 184.388 -3.99564 184.182C-4.03458 184.184 -4.0823 184.171 -4.10616 184.165L-5.92458 183.835C-7.40267 183.573 -8.3842 182.151 -8.13491 180.668C-7.88313 179.224 -6.55399 178.254 -5.11103 178.456L-5.02439 178.467L-5.03946 178.475Z" fill="#E5106C"/>
<path d="M6.13164 177.112L7.8072 176.672L7.83735 176.655C9.32953 176.28 10.8714 177.175 11.2651 178.693C11.6589 180.21 10.7716 181.737 9.27939 182.111L7.51089 182.564C6.01871 182.939 4.4919 182.035 4.10696 180.533C3.72202 179.031 4.60932 177.504 6.10149 177.129L6.13164 177.112Z" fill="#E5106C"/>
<path d="M17.3686 173.387L18.8295 172.645L18.9652 172.567C20.2754 171.912 21.8639 172.435 22.5415 173.748C23.2016 175.031 22.73 176.581 21.5002 177.271L19.8269 178.237C18.528 178.946 16.8817 178.497 16.1412 177.18C15.3945 175.886 15.8436 174.227 17.1487 173.494C17.1789 173.477 17.2091 173.459 17.2392 173.442L17.3598 173.372L17.3686 173.387Z" fill="#E5106C"/>
<path d="M26.5399 166.714L27.633 165.475L27.7423 165.351C28.4347 164.565 29.6479 164.474 30.4439 165.191C31.1482 165.819 31.2909 166.832 30.8473 167.595L29.8833 169.268C29.2989 170.275 28.0077 170.614 27.0007 170.019C25.9937 169.424 25.6451 168.124 26.2295 167.117C26.2999 166.995 26.379 166.888 26.4582 166.782L26.5462 166.69L26.5399 166.714Z" fill="#E5106C"/>
<path d="M32.4093 156.448C32.5841 155.88 32.7137 155.339 32.8885 154.771L32.9011 154.723C33.0017 154.341 33.4024 154.13 33.7842 154.234C34.127 154.34 34.3353 154.666 34.295 155.014C34.2244 155.623 34.1865 156.254 34.092 156.856C34.029 157.339 33.5881 157.654 33.1222 157.578C32.6563 157.502 32.3236 157.065 32.3954 156.598C32.408 156.55 32.4206 156.502 32.4332 156.454L32.4093 156.448Z" fill="#E5106C"/>
<path d="M26.2739 144.627C26.092 144.104 25.8197 143.632 25.5021 143.186C25.408 143.058 25.4369 142.899 25.5638 142.806C25.6907 142.712 25.8489 142.743 25.9431 142.871C26.3021 143.353 26.5794 143.903 26.7876 144.473C26.8278 144.612 26.7662 144.749 26.6217 144.812C26.4836 144.851 26.3467 144.788 26.2915 144.658L26.2739 144.627Z" fill="#E5106C"/>
<path d="M16.3378 140.011L14.6586 140.027L14.6285 140.044C13.9013 140.038 13.31 139.466 13.2952 138.745C13.2804 138.023 13.8446 137.433 14.563 137.424C14.6647 137.426 14.7752 137.444 14.8857 137.461L16.6162 137.882C17.1951 138.015 17.5528 138.599 17.4257 139.18C17.3087 139.674 16.8765 140.004 16.4006 140.015L16.3378 140.011Z" fill="#E5106C"/>
<path d="M4.58685 140.896C4.04427 140.966 3.49919 140.997 2.93904 141.036L2.86117 141.04C1.57006 141.137 0.430102 140.172 0.308812 138.882C0.202596 137.584 1.15379 136.447 2.43612 136.336C2.47505 136.333 2.52906 136.322 2.57678 136.335C3.16957 136.318 3.76236 136.3 4.37273 136.313C5.63239 136.336 6.65177 137.371 6.64747 138.652C6.63569 139.815 5.77374 140.759 4.64964 140.901L4.57178 140.905L4.58685 140.896Z" fill="#E5106C"/>
<path d="M4.06034 166.098L5.64296 165.671L5.70326 165.636C7.21051 165.253 8.75239 166.148 9.16119 167.657C9.57 169.166 8.70656 170.699 7.2081 171.097L5.48731 171.563C3.98885 171.962 2.43188 171.075 2.02308 169.567C1.61428 168.058 2.48401 166.501 3.98247 166.102L4.05155 166.083L4.06034 166.098Z" fill="#E5106C"/>
<path d="M14.8487 162.464C15.3273 162.248 15.8059 162.033 16.3021 161.848L16.4528 161.761C17.6436 161.317 18.9859 161.901 19.4526 163.093C19.8529 164.099 19.4945 165.219 18.6578 165.824C18.1565 166.174 17.6402 166.533 17.1302 166.868C15.9895 167.608 14.4436 167.263 13.7132 166.102C12.9676 164.95 13.2986 163.4 14.448 162.675C14.5385 162.623 14.6289 162.571 14.7344 162.51L14.84 162.449L14.8487 162.464Z" fill="#E5106C"/>
<path d="M23.1734 156.036L23.7694 154.353C23.9027 153.992 24.2971 153.805 24.6575 153.942C24.9852 154.057 25.1634 154.401 25.1055 154.718L25.093 154.766L24.7909 156.401L24.772 156.473C24.6914 156.925 24.2505 157.24 23.7909 157.141C23.34 157.056 23.0225 156.61 23.1181 156.149C23.1307 156.102 23.1433 156.054 23.1558 156.006L23.1734 156.036Z" fill="#E5106C"/>
</g>
<defs>
<clipPath id="clip0_9818_15862">
<rect width="243.395" height="235.721" fill="white" transform="translate(-153 117.695) rotate(-30)"/>
</clipPath>
</defs>
</svg>
