<svg width="149" height="174" viewBox="0 0 149 174" fill="none" xmlns="http://www.w3.org/2000/svg">
<g opacity="0.2">
<path d="M87.6285 70.1622L94.2806 74.0016C94.3086 74.0178 94.3411 74.0308 94.3675 74.0486L101.051 77.9095C101.499 78.1683 101.749 78.6379 101.742 79.1212V86.9136V94.7288C101.742 95.274 101.425 95.7452 100.966 95.9689L94.286 99.8277C94.2484 99.8494 94.2106 99.8727 94.1719 99.8905L87.5143 103.733C87.0318 104.011 86.4539 103.97 86.0278 103.667L79.3755 99.8276C79.3476 99.8115 79.315 99.7985 79.2887 99.7807L72.6049 95.9198C72.1567 95.661 71.9074 95.1913 71.9142 94.7081V86.9136V79.1005C71.9142 78.5553 72.2308 78.0841 72.6901 77.8603L79.3701 74.0016C79.4077 73.9799 79.4456 73.9567 79.4842 73.9389L86.1418 70.0964C86.6244 69.8179 87.2024 69.8589 87.6285 70.1622ZM92.9087 76.3798L86.8281 72.8703L80.8568 76.3167C80.8223 76.341 80.7865 76.3642 80.7492 76.3858L74.6717 79.8926V86.9136V93.9367L80.665 97.3987C80.6932 97.4126 80.7212 97.4273 80.7487 97.4432L86.8281 100.959L92.7994 97.5126C92.8339 97.4883 92.8697 97.4651 92.907 97.4435L98.9845 93.9367V86.9136V79.8926L92.9912 76.4306C92.9629 76.4167 92.9362 76.3957 92.9087 76.3798Z" fill="#E5106C"/>
<path d="M88.281 1.5272C88.281 0.765757 87.6636 0.148438 86.9022 0.148438C86.1408 0.148438 85.5234 0.765757 85.5234 1.5272V52.249C85.5234 53.0104 86.1408 53.6278 86.9022 53.6278C87.6636 53.6278 88.281 53.0104 88.281 52.249V1.5272Z" fill="#E5106C"/>
<path d="M148.234 27.572C148.772 27.0337 148.772 26.1608 148.234 25.6225C147.696 25.0842 146.823 25.0842 146.285 25.6225L110.419 61.4877C109.881 62.026 109.881 62.8989 110.419 63.4372C110.958 63.9755 111.831 63.9755 112.369 63.4372L148.234 27.572Z" fill="#E5106C"/>
<path d="M172.35 88.2731C173.112 88.2731 173.729 87.6558 173.729 86.8944C173.729 86.1329 173.112 85.5156 172.35 85.5156H121.629C120.867 85.5156 120.25 86.1329 120.25 86.8944C120.25 87.6558 120.867 88.2731 121.629 88.2731H172.35Z" fill="#E5106C"/>
<path d="M146.285 148.5C146.823 149.038 147.696 149.038 148.234 148.5C148.772 147.961 148.772 147.089 148.234 146.55L112.369 110.685C111.831 110.147 110.958 110.147 110.419 110.685C109.881 111.223 109.881 112.096 110.419 112.635L146.285 148.5Z" fill="#E5106C"/>
<path d="M85.5234 172.616C85.5234 173.378 86.1408 173.995 86.9022 173.995C87.6636 173.995 88.281 173.378 88.281 172.616V121.894C88.281 121.133 87.6636 120.516 86.9022 120.516C86.1408 120.516 85.5234 121.133 85.5234 121.894V172.616Z" fill="#E5106C"/>
<path d="M25.4584 146.55C24.9201 147.089 24.9201 147.961 25.4584 148.5C25.9968 149.038 26.8696 149.038 27.4079 148.5L63.2731 112.635C63.8115 112.096 63.8115 111.223 63.2731 110.685C62.7348 110.147 61.862 110.147 61.3236 110.685L25.4584 146.55Z" fill="#E5106C"/>
<path d="M1.39438 85.5156C0.632944 85.5156 0.015625 86.1329 0.015625 86.8944C0.015625 87.6558 0.632944 88.2731 1.39438 88.2731H52.1158C52.8773 88.2731 53.4946 87.6558 53.4946 86.8944C53.4946 86.1329 52.8773 85.5156 52.1158 85.5156H1.39438Z" fill="#E5106C"/>
<path d="M27.408 25.6225C26.8696 25.0842 25.9968 25.0842 25.4584 25.6225C24.9201 26.1608 24.9201 27.0337 25.4584 27.572L61.3236 63.4372C61.862 63.9755 62.7348 63.9755 63.2731 63.4372C63.8115 62.8989 63.8115 62.026 63.2731 61.4877L27.408 25.6225Z" fill="#E5106C"/>
<path d="M106.345 43.5063C106.633 42.8045 106.298 42.0014 105.596 41.7129C104.894 41.4244 104.091 41.7596 103.803 42.4614L95.4473 62.7343C95.1588 63.4362 95.494 64.2393 96.1958 64.5278C96.8977 64.8163 97.7008 64.4811 97.9893 63.7793L106.345 43.5063Z" fill="#E5106C"/>
<path d="M131.359 70.1084C132.061 69.8171 132.393 69.0115 132.102 68.3097C131.811 67.6078 131.005 67.2751 130.303 67.5664L110.06 75.9932C109.358 76.2845 109.025 77.0901 109.316 77.7919C109.608 78.4938 110.413 78.8265 111.115 78.5352L131.359 70.1084Z" fill="#E5106C"/>
<path d="M130.336 106.47C131.038 106.758 131.841 106.423 132.129 105.721C132.418 105.019 132.083 104.216 131.381 103.928L111.108 95.5723C110.406 95.2838 109.603 95.619 109.314 96.3208C109.026 97.0227 109.361 97.8258 110.063 98.1143L130.336 106.47Z" fill="#E5106C"/>
<path d="M103.876 131.366C104.167 132.068 104.973 132.401 105.675 132.11C106.376 131.818 106.709 131.013 106.418 130.311L97.9913 110.068C97.6999 109.366 96.8944 109.033 96.1925 109.324C95.4907 109.616 95.1579 110.421 95.4493 111.123L103.876 131.366Z" fill="#E5106C"/>
<path d="M67.4434 130.602C67.1549 131.303 67.49 132.106 68.1919 132.395C68.8938 132.683 69.6968 132.348 69.9853 131.646L78.341 111.374C78.6295 110.672 78.2943 109.869 77.5924 109.58C76.8906 109.292 76.0875 109.627 75.799 110.329L67.4434 130.602Z" fill="#E5106C"/>
<path d="M42.4698 104.001C41.768 104.292 41.4353 105.098 41.7266 105.8C42.018 106.501 42.8235 106.834 43.5253 106.543L63.7687 98.1163C64.4705 97.8249 64.8033 97.0194 64.5119 96.3175C64.2206 95.6157 63.415 95.2829 62.7132 95.5743L42.4698 104.001Z" fill="#E5106C"/>
<path d="M43.3892 67.5645C42.6873 67.276 41.8842 67.6111 41.5957 68.313C41.3072 69.0148 41.6424 69.8179 42.3442 70.1064L62.6172 78.4622C63.319 78.7507 64.1221 78.4155 64.4106 77.7137C64.6991 77.0118 64.3639 76.2087 63.6621 75.9202L43.3892 67.5645Z" fill="#E5106C"/>
<path d="M69.8467 42.4581C69.5554 41.7563 68.7498 41.4235 68.048 41.7149C67.3461 42.0062 67.0134 42.8118 67.3047 43.5136L75.7315 63.757C76.0228 64.4588 76.8284 64.7916 77.5302 64.5002C78.2321 64.2089 78.5648 63.4033 78.2735 62.7015L69.8467 42.4581Z" fill="#E5106C"/>
<path d="M111.05 15.7133L114.125 20.7388L119.943 19.3191C120.683 19.1386 121.428 19.5875 121.608 20.3272C121.726 20.8098 121.574 21.2951 121.249 21.6243L117.426 26.1017L120.573 31.2003C120.973 31.8481 120.777 32.6952 120.129 33.0951C119.712 33.3527 119.211 33.361 118.8 33.1611L113.345 30.8981L109.473 35.4654C108.981 36.0463 108.112 36.1209 107.531 35.6286C107.164 35.3175 107.001 34.8557 107.054 34.4113L107.52 28.4946L101.982 26.2215C101.278 25.9324 100.94 25.131 101.229 24.4267C101.42 23.959 101.84 23.6536 102.307 23.5856L108.005 22.2205L108.453 16.2453C108.51 15.486 109.17 14.9158 109.929 14.9727C110.423 15.0097 110.837 15.3034 111.05 15.7133ZM112.301 23.0283L110.881 20.7061L110.682 23.3548C110.668 23.965 110.246 24.5133 109.625 24.6621L106.961 25.2944L109.386 26.2895C109.985 26.4774 110.398 27.0603 110.347 27.7134L110.131 30.4345L111.834 28.4259C112.201 27.9254 112.874 27.7203 113.473 27.9688L115.998 29.0191L114.626 26.7954C114.248 26.2907 114.255 25.5742 114.682 25.0747L116.459 22.9984L113.911 23.6202C113.316 23.8193 112.643 23.5866 112.301 23.0283Z" fill="#E5106C"/>
<path d="M154.46 53.6737L153.088 59.3771L158.207 62.4868C158.858 62.8821 159.07 63.726 158.675 64.3767C158.425 64.7876 157.995 65.0216 157.548 65.0387L151.634 65.5045L150.257 71.3284C150.082 72.0693 149.34 72.5329 148.599 72.3578C148.112 72.2426 147.747 71.8815 147.604 71.4369L145.358 66.0099L139.387 66.5036C138.628 66.5663 137.962 66.0026 137.899 65.2439C137.858 64.7489 138.084 64.2934 138.457 64.019L142.935 60.1937L140.625 54.6666C140.332 53.9641 140.661 53.1574 141.363 52.8638C141.82 52.6728 142.322 52.7465 142.698 53.0149L147.716 56.0927L152.255 52.1855C152.832 51.6888 153.703 51.7538 154.199 52.3308C154.529 52.7142 154.611 53.2269 154.46 53.6737ZM150.184 59.7088L150.822 57.0569L148.78 58.815C148.337 59.2148 147.668 59.2945 147.134 58.967L144.807 57.5356L145.827 59.9759C146.101 60.5286 145.977 61.217 145.487 61.6358L143.409 63.4057L146.077 63.1851C146.676 63.1121 147.275 63.4418 147.517 64.027L148.557 66.5516L149.167 63.9677C149.274 63.3645 149.777 62.8859 150.416 62.8355L153.143 62.6221L150.92 61.2717C150.348 60.9961 150.03 60.3515 150.184 59.7088Z" fill="#E5106C"/>
<path d="M158.137 111.324L153.111 114.399L154.531 120.217C154.712 120.956 154.263 121.701 153.523 121.882C153.04 122 152.555 121.847 152.226 121.522L147.748 117.699L142.65 120.847C142.002 121.247 141.155 121.05 140.755 120.402C140.497 119.985 140.489 119.484 140.689 119.073L142.952 113.618L138.385 109.747C137.804 109.254 137.729 108.386 138.222 107.805C138.533 107.438 138.995 107.274 139.439 107.328L145.355 107.794L147.629 102.256C147.918 101.551 148.719 101.213 149.423 101.502C149.891 101.694 150.197 102.114 150.264 102.58L151.63 108.278L157.605 108.726C158.364 108.783 158.934 109.443 158.877 110.202C158.84 110.697 158.547 111.111 158.137 111.324ZM150.822 112.575L153.144 111.154L150.495 110.956C149.885 110.941 149.337 110.52 149.188 109.898L148.556 107.235L147.561 109.659C147.373 110.259 146.79 110.671 146.137 110.62L143.416 110.404L145.424 112.107C145.925 112.474 146.13 113.148 145.881 113.747L144.831 116.272L147.055 114.899C147.559 114.521 148.276 114.529 148.775 114.955L150.852 116.733L150.23 114.185C150.031 113.59 150.263 112.916 150.822 112.575Z" fill="#E5106C"/>
<path d="M120.128 154.597L114.424 153.225L111.315 158.344C110.919 158.995 110.075 159.207 109.425 158.811C109.014 158.562 108.78 158.131 108.763 157.684L108.297 151.77L102.473 150.394C101.732 150.219 101.268 149.477 101.443 148.736C101.559 148.248 101.92 147.883 102.364 147.74L107.791 145.495L107.298 139.524C107.235 138.765 107.799 138.099 108.557 138.036C109.052 137.995 109.508 138.221 109.782 138.594L113.608 143.072L119.135 140.762C119.837 140.468 120.644 140.797 120.937 141.5C121.129 141.957 121.055 142.459 120.786 142.834L117.709 147.852L121.616 152.392C122.112 152.969 122.048 153.839 121.47 154.336C121.087 154.666 120.574 154.748 120.128 154.597ZM114.092 150.321L116.744 150.959L114.986 148.916C114.586 148.474 114.507 147.805 114.834 147.271L116.266 144.944L113.826 145.964C113.273 146.238 112.584 146.114 112.166 145.623L110.396 143.546L110.616 146.214C110.689 146.813 110.359 147.412 109.774 147.654L107.25 148.693L109.834 149.304C110.437 149.411 110.915 149.914 110.966 150.553L111.179 153.279L112.529 151.056C112.805 150.484 113.45 150.166 114.092 150.321Z" fill="#E5106C"/>
<path d="M62.5861 158.274L59.511 153.248L53.6931 154.668C52.9534 154.848 52.2084 154.399 52.0279 153.66C51.9101 153.177 52.0622 152.692 52.3875 152.363L56.2103 147.885L53.0628 142.786C52.6629 142.139 52.8594 141.292 53.5072 140.892C53.9245 140.634 54.4257 140.626 54.8363 140.826L60.2916 143.089L64.1632 138.521C64.6555 137.941 65.5241 137.866 66.1049 138.358C66.4719 138.669 66.6354 139.131 66.5821 139.576L66.1161 145.492L71.6541 147.765C72.3584 148.054 72.6968 148.856 72.4078 149.56C72.2159 150.028 71.796 150.333 71.3295 150.401L65.631 151.766L65.1836 157.742C65.1268 158.501 64.4666 159.071 63.7073 159.014C63.213 158.977 62.799 158.683 62.5861 158.274ZM61.3348 150.958L62.7557 153.281L62.954 150.632C62.9684 150.022 63.3897 149.474 64.0113 149.325L66.6748 148.692L64.2505 147.697C63.6507 147.509 63.2382 146.927 63.2896 146.273L63.5052 143.552L61.8026 145.561C61.4355 146.061 60.7619 146.267 60.163 146.018L57.6377 144.968L59.0105 147.191C59.3884 147.696 59.381 148.413 58.9544 148.912L57.1769 150.988L59.7247 150.367C60.32 150.167 60.9932 150.4 61.3348 150.958Z" fill="#E5106C"/>
<path d="M19.3723 120.12L20.7437 114.416L15.625 111.307C14.9743 110.911 14.7623 110.067 15.1576 109.417C15.4073 109.006 15.8375 108.772 16.2846 108.755L22.1987 108.289L23.5749 102.465C23.7499 101.724 24.4919 101.261 25.2329 101.436C25.7205 101.551 26.0858 101.912 26.2288 102.357L28.4741 107.784L34.4453 107.29C35.204 107.227 35.8702 107.791 35.9329 108.55C35.9738 109.045 35.7478 109.5 35.3752 109.774L30.8971 113.6L33.2071 119.127C33.5006 119.829 33.1715 120.636 32.469 120.93C32.0118 121.121 31.51 121.047 31.1345 120.779L26.1164 117.701L21.5772 121.608C21.0001 122.105 20.1295 122.04 19.6328 121.463C19.3029 121.079 19.221 120.566 19.3723 120.12ZM23.6477 114.084L23.01 116.737L25.0525 114.978C25.4948 114.579 26.1639 114.499 26.6978 114.826L29.0248 116.258L28.005 113.818C27.731 113.265 27.8552 112.577 28.3455 112.158L30.4229 110.388L27.7554 110.608C27.156 110.681 26.5574 110.352 26.3154 109.767L25.2757 107.242L24.6652 109.826C24.5579 110.429 24.0552 110.908 23.4159 110.958L20.6897 111.171L22.9129 112.522C23.4847 112.798 23.8021 113.442 23.6477 114.084Z" fill="#E5106C"/>
<path d="M15.5688 62.723L20.5944 59.6478L19.1746 53.8298C18.9941 53.0901 19.443 52.3451 20.1827 52.1646C20.6653 52.0468 21.1505 52.1988 21.4797 52.5243L25.9571 56.3471L31.0558 53.1996C31.7036 52.7997 32.5507 52.9962 32.9506 53.6441C33.2081 54.0613 33.2164 54.5624 33.0165 54.973L30.7535 60.4283L35.3209 64.3C35.9017 64.7923 35.9763 65.661 35.484 66.2418C35.173 66.6087 34.7111 66.7724 34.2666 66.7189L28.3501 66.2528L26.0771 71.7908C25.788 72.4951 24.9866 72.8335 24.2823 72.5445C23.8146 72.3526 23.509 71.9329 23.4412 71.4663L22.076 65.7679L16.1008 65.3205C15.3415 65.2636 14.7713 64.6034 14.8281 63.8442C14.8652 63.3498 15.1588 62.9359 15.5688 62.723ZM22.8839 61.4717L20.5617 62.8926L23.2101 63.0909C23.8204 63.1053 24.3687 63.5266 24.5176 64.1481L25.1498 66.8117L26.1449 64.3873C26.3329 63.7874 26.9157 63.3749 27.5689 63.4263L30.2899 63.642L28.2813 61.9393C27.7808 61.5722 27.5759 60.8986 27.8243 60.2997L28.8746 57.7746L26.6508 59.1474C26.1462 59.5253 25.4297 59.5178 24.9301 59.0913L22.854 57.3139L23.4758 59.8616C23.6749 60.4569 23.4422 61.1301 22.8839 61.4717Z" fill="#E5106C"/>
<path d="M53.6854 19.3838L59.3889 20.7554L62.4983 15.6367C62.8937 14.986 63.7376 14.774 64.3883 15.1693C64.7992 15.419 65.0331 15.8492 65.0502 16.2963L65.5161 22.2103L71.3399 23.5864C72.0809 23.7615 72.5444 24.5035 72.3694 25.2444C72.2542 25.732 71.8931 26.0973 71.4485 26.2404L66.0215 28.4857L66.5152 34.457C66.5779 35.2157 66.0141 35.8819 65.2554 35.9446C64.7605 35.9855 64.305 35.7595 64.0306 35.3869L60.2053 30.9088L54.6784 33.2188C53.9758 33.5123 53.1691 33.1832 52.8756 32.4807C52.6845 32.0235 52.7582 31.5218 53.0266 31.1462L56.1045 26.1281L52.1972 21.5887C51.7005 21.0117 51.7655 20.1411 52.3425 19.6444C52.7259 19.3145 53.2386 19.2325 53.6854 19.3838ZM59.7205 23.6594L57.0685 23.0216L58.8266 25.0642C59.2264 25.5065 59.3061 26.1756 58.9786 26.7095L57.5472 29.0365L59.9874 28.0167C60.5402 27.7427 61.2286 27.8669 61.6474 28.3572L63.4173 30.4347L63.1967 27.767C63.1237 27.1676 63.4534 26.569 64.0386 26.3269L66.5632 25.2873L63.9793 24.6768C63.3761 24.5694 62.8974 24.0668 62.8471 23.4275L62.6336 20.7014L61.2834 22.924C61.0078 23.4964 60.3632 23.814 59.7205 23.6594Z" fill="#E5106C"/>
</g>
</svg>
