<svg width="112" height="105" viewBox="0 0 112 105" fill="none" xmlns="http://www.w3.org/2000/svg">
<g opacity="0.2">
<path d="M56.7997 44.6943L61.039 47.1412C61.0569 47.1515 61.0776 47.1598 61.0944 47.1711L65.3539 49.6316C65.6395 49.7965 65.7984 50.0958 65.794 50.4038V55.3698V60.3503C65.794 60.6978 65.5923 60.998 65.2995 61.1406L61.0425 63.5997C61.0185 63.6136 60.9944 63.6285 60.9698 63.6398L56.727 66.0884C56.4194 66.2659 56.0512 66.2398 55.7797 66.0465L51.5402 63.5997C51.5224 63.5894 51.5017 63.5811 51.4849 63.5698L47.2254 61.1093C46.9398 60.9444 46.7809 60.6451 46.7852 60.3371V55.3698V50.3906C46.7852 50.0431 46.987 49.7429 47.2797 49.6003L51.5368 47.1412C51.5607 47.1273 51.5849 47.1125 51.6095 47.1012L55.8523 44.6524C56.1598 44.4749 56.5282 44.5011 56.7997 44.6943ZM60.1647 48.6568L56.2897 46.4202L52.4842 48.6165C52.4623 48.632 52.4394 48.6468 52.4156 48.6606L48.5426 50.8954V55.3698V59.8455L52.362 62.0518C52.38 62.0606 52.3978 62.0701 52.4154 62.0802L56.2896 64.3207L60.0951 62.1244C60.1171 62.1089 60.1399 62.0941 60.1637 62.0803L64.0368 59.8455V55.3698V50.8954L60.2173 48.6891C60.1993 48.6803 60.1823 48.6669 60.1647 48.6568Z" fill="#E5106C"/>
<path d="M57.2183 0.964599C57.2183 0.479345 56.8249 0.0859375 56.3396 0.0859375C55.8543 0.0859375 55.4609 0.479345 55.4609 0.964599V33.2888C55.4609 33.774 55.8543 34.1674 56.3396 34.1674C56.8249 34.1674 57.2183 33.774 57.2183 33.2888V0.964599Z" fill="#E5106C"/>
<path d="M95.4264 17.5778C95.7695 17.2348 95.7695 16.6785 95.4264 16.3354C95.0833 15.9924 94.5271 15.9924 94.184 16.3354L71.3276 39.1918C70.9845 39.5349 70.9845 40.0911 71.3276 40.4342C71.6707 40.7773 72.2269 40.7773 72.57 40.4342L95.4264 17.5778Z" fill="#E5106C"/>
<path d="M110.789 56.2261C111.274 56.2261 111.667 55.8327 111.667 55.3474C111.667 54.8622 111.274 54.4688 110.789 54.4688H78.4646C77.9793 54.4688 77.5859 54.8622 77.5859 55.3474C77.5859 55.8327 77.9793 56.2261 78.4646 56.2261H110.789Z" fill="#E5106C"/>
<path d="M94.184 94.6451C94.5271 94.9882 95.0833 94.9882 95.4264 94.6451C95.7695 94.3021 95.7695 93.7458 95.4264 93.4028L72.57 70.5464C72.2269 70.2033 71.6707 70.2033 71.3276 70.5464C70.9845 70.8894 70.9845 71.4457 71.3276 71.7888L94.184 94.6451Z" fill="#E5106C"/>
<path d="M55.4609 110C55.4609 110.485 55.8543 110.878 56.3396 110.878C56.8249 110.878 57.2183 110.485 57.2183 110V77.6755C57.2183 77.1903 56.8249 76.7969 56.3396 76.7969C55.8543 76.7969 55.4609 77.1903 55.4609 77.6755V110Z" fill="#E5106C"/>
<path d="M17.1753 93.4028C16.8322 93.7458 16.8322 94.3021 17.1753 94.6451C17.5183 94.9882 18.0746 94.9882 18.4177 94.6451L41.2741 71.7888C41.6171 71.4457 41.6171 70.8894 41.2741 70.5464C40.931 70.2033 40.3747 70.2033 40.0317 70.5464L17.1753 93.4028Z" fill="#E5106C"/>
<path d="M1.84741 54.4688C1.36216 54.4688 0.96875 54.8622 0.96875 55.3474C0.96875 55.8327 1.36216 56.2261 1.84741 56.2261H34.1714C34.6566 56.2261 35.05 55.8327 35.05 55.3474C35.05 54.8622 34.6566 54.4688 34.1714 54.4688H1.84741Z" fill="#E5106C"/>
<path d="M18.4177 16.3354C18.0746 15.9924 17.5183 15.9924 17.1753 16.3354C16.8322 16.6785 16.8322 17.2347 17.1753 17.5778L40.0317 40.4342C40.3747 40.7773 40.931 40.7773 41.2741 40.4342C41.6171 40.0911 41.6171 39.5349 41.2741 39.1918L18.4177 16.3354Z" fill="#E5106C"/>
<path d="M68.7335 27.7089C68.9174 27.2616 68.7038 26.7498 68.2565 26.566C67.8092 26.3821 67.2974 26.5957 67.1136 27.043L61.7886 39.9626C61.6048 40.4099 61.8184 40.9217 62.2657 41.1056C62.7129 41.2894 63.2247 41.0758 63.4086 40.6285L68.7335 27.7089Z" fill="#E5106C"/>
<path d="M84.673 44.6794C85.1203 44.4937 85.3324 43.9804 85.1467 43.5331C84.961 43.0858 84.4477 42.8738 84.0004 43.0594L71.0995 48.4297C70.6522 48.6153 70.4402 49.1287 70.6258 49.576C70.8115 50.0233 71.3249 50.2353 71.7721 50.0496L84.673 44.6794Z" fill="#E5106C"/>
<path d="M84.0212 67.8624C84.4685 68.0463 84.9803 67.8327 85.1642 67.3854C85.348 66.9381 85.1344 66.4263 84.6872 66.2425L71.7675 60.9175C71.3202 60.7337 70.8084 60.9473 70.6246 61.3946C70.4407 61.8419 70.6543 62.3537 71.1016 62.5375L84.0212 67.8624Z" fill="#E5106C"/>
<path d="M67.16 83.716C67.3457 84.1633 67.8591 84.3753 68.3064 84.1897C68.7536 84.004 68.9657 83.4906 68.78 83.0433L63.4099 70.1425C63.2242 69.6952 62.7108 69.4831 62.2636 69.6688C61.8163 69.8545 61.6042 70.3678 61.7899 70.8151L67.16 83.716Z" fill="#E5106C"/>
<path d="M43.9449 83.2204C43.761 83.6677 43.9746 84.1795 44.4219 84.3634C44.8692 84.5472 45.381 84.3336 45.5648 83.8864L50.8898 70.9667C51.0736 70.5194 50.86 70.0076 50.4127 69.8238C49.9655 69.6399 49.4537 69.8535 49.2698 70.3008L43.9449 83.2204Z" fill="#E5106C"/>
<path d="M28.0292 66.289C27.5819 66.4746 27.3698 66.988 27.5555 67.4353C27.7412 67.8825 28.2545 68.0946 28.7018 67.9089L41.6026 62.5388C42.0499 62.3531 42.262 61.8397 42.0763 61.3925C41.8906 60.9452 41.3773 60.7331 40.93 60.9188L28.0292 66.289Z" fill="#E5106C"/>
<path d="M28.6152 43.0582C28.1679 42.8743 27.6561 43.0879 27.4722 43.5352C27.2884 43.9825 27.502 44.4943 27.9493 44.6781L40.8689 50.0031C41.3162 50.187 41.828 49.9734 42.0118 49.5261C42.1957 49.0788 41.9821 48.567 41.5348 48.3832L28.6152 43.0582Z" fill="#E5106C"/>
<path d="M45.4646 27.0409C45.2789 26.5936 44.7655 26.3816 44.3182 26.5672C43.871 26.7529 43.6589 27.2663 43.8446 27.7135L49.2148 40.6143C49.4005 41.0616 49.9139 41.2737 50.3611 41.088C50.8084 40.9023 51.0205 40.389 50.8348 39.9417L45.4646 27.0409Z" fill="#E5106C"/>
<path d="M71.7314 9.98233L73.6911 13.185L77.3988 12.2802C77.8702 12.1652 78.345 12.4513 78.4601 12.9227C78.5351 13.2302 78.4383 13.5395 78.2309 13.7493L75.7946 16.6027L77.8005 19.8519C78.0553 20.2648 77.9301 20.8046 77.5172 21.0595C77.2513 21.2236 76.932 21.2289 76.6703 21.1015L73.1939 19.6594L70.7264 22.5701C70.4127 22.9402 69.8591 22.9878 69.489 22.674C69.2551 22.4758 69.1509 22.1815 69.1849 21.8983L69.4818 18.1277L65.9526 16.679C65.5037 16.4948 65.2881 15.9841 65.4723 15.5352C65.5945 15.2372 65.8621 15.0425 66.1594 14.9992L69.7909 14.1293L70.0761 10.3213C70.1123 9.83747 70.5331 9.47407 71.0169 9.51031C71.332 9.53392 71.5958 9.72107 71.7314 9.98233ZM72.5288 14.644L71.6233 13.1642L71.4969 14.8521C71.4877 15.241 71.2192 15.5904 70.8231 15.6853L69.1257 16.0882L70.6707 16.7224C71.0529 16.8421 71.3158 17.2136 71.283 17.6298L71.1457 19.3639L72.2308 18.0838C72.4647 17.7649 72.894 17.6342 73.2757 17.7926L74.8849 18.4619L74.0101 17.0448C73.7692 16.7231 73.774 16.2665 74.0458 15.9482L75.1786 14.625L73.5549 15.0213C73.1755 15.1481 72.7465 14.9998 72.5288 14.644Z" fill="#E5106C"/>
<path d="M99.3851 34.2237L98.511 37.8584L101.773 39.8402C102.188 40.0921 102.323 40.6299 102.071 41.0446C101.912 41.3065 101.638 41.4556 101.353 41.4665L97.5839 41.7633L96.7068 45.4748C96.5953 45.947 96.1224 46.2424 95.6502 46.1308C95.3395 46.0574 95.1067 45.8273 95.0155 45.544L93.5846 42.0854L89.7792 42.4C89.2956 42.44 88.8711 42.0807 88.8311 41.5972C88.8051 41.2818 88.9491 40.9915 89.1866 40.8166L92.0404 38.3788L90.5683 34.8565C90.3812 34.4088 90.5909 33.8947 91.0387 33.7076C91.33 33.5858 91.6498 33.6328 91.8891 33.8039L95.0871 35.7653L97.9799 33.2753C98.3477 32.9588 98.9025 33.0002 99.219 33.3679C99.4293 33.6122 99.4815 33.939 99.3851 34.2237ZM96.6603 38.0698L97.0667 36.3798L95.7651 37.5002C95.4832 37.755 95.0568 37.8058 94.7166 37.5971L93.2336 36.6849L93.8835 38.24C94.0581 38.5922 93.979 39.031 93.6665 39.2978L92.3426 40.4258L94.0426 40.2852C94.4246 40.2387 94.8061 40.4488 94.9604 40.8217L95.6229 42.4306L96.012 40.7839C96.0804 40.3995 96.4007 40.0945 96.8081 40.0624L98.5455 39.9264L97.129 39.0658C96.7643 38.8902 96.5618 38.4794 96.6603 38.0698Z" fill="#E5106C"/>
<path d="M101.728 70.9423L98.5255 72.9021L99.4303 76.6097C99.5454 77.0811 99.2593 77.5559 98.7879 77.6709C98.4803 77.746 98.1711 77.649 97.9613 77.4417L95.1078 75.0055L91.8585 77.0114C91.4457 77.2663 90.9058 77.141 90.651 76.7282C90.4868 76.4622 90.4816 76.1429 90.609 75.8812L92.0511 72.4046L89.1405 69.9373C88.7704 69.6235 88.7228 69.07 89.0365 68.6998C89.2348 68.466 89.5291 68.3618 89.8124 68.3957L93.5828 68.6927L95.0314 65.1635C95.2157 64.7147 95.7264 64.499 96.1753 64.6832C96.4733 64.8055 96.668 65.073 96.7113 65.3703L97.5813 69.0017L101.389 69.287C101.873 69.3232 102.236 69.7439 102.2 70.2278C102.177 70.5428 101.989 70.8066 101.728 70.9423ZM97.0664 71.7398L98.5464 70.8342L96.8585 70.7078C96.4696 70.6986 96.1202 70.4301 96.0253 70.034L95.6224 68.3365L94.9881 69.8817C94.8683 70.2639 94.4969 70.5268 94.0807 70.494L92.3467 70.3566L93.6267 71.4417C93.9457 71.6756 94.0763 72.1049 93.918 72.4865L93.2486 74.0959L94.6657 73.221C94.9873 72.9802 95.444 72.9849 95.7623 73.2567L97.0855 74.3896L96.6892 72.7659C96.5623 72.3865 96.7107 71.9574 97.0664 71.7398Z" fill="#E5106C"/>
<path d="M77.5129 98.5256L73.8781 97.6516L71.8964 100.914C71.6445 101.328 71.1067 101.464 70.692 101.212C70.4301 101.052 70.281 100.778 70.2702 100.493L69.9733 96.7244L66.2618 95.8474C65.7896 95.7358 65.4942 95.2629 65.6058 94.7908C65.6792 94.48 65.9092 94.2472 66.1926 94.1561L69.6512 92.7251L69.3366 88.9198C69.2966 88.4363 69.6559 88.0117 70.1394 87.9718C70.4548 87.9457 70.7451 88.0897 70.92 88.3272L73.3578 91.181L76.8801 89.7089C77.3278 89.5219 77.8419 89.7316 78.029 90.1793C78.1508 90.4707 78.1038 90.7905 77.9327 91.0298L75.9712 94.2277L78.4613 97.1205C78.7778 97.4882 78.7364 98.0431 78.3687 98.3596C78.1244 98.5698 77.7976 98.6221 77.5129 98.5256ZM73.6667 95.8009L75.3568 96.2072L74.2364 94.9057C73.9816 94.6239 73.9308 94.1974 74.1395 93.8572L75.0517 92.3742L73.4967 93.0241C73.1445 93.1987 72.7057 93.1196 72.4388 92.8071L71.3108 91.4831L71.4514 93.1832C71.4979 93.5652 71.2878 93.9467 70.9149 94.101L69.3061 94.7634L70.9527 95.1525C71.3371 95.2209 71.6421 95.5412 71.6742 95.9487L71.8102 97.6861L72.6707 96.2695C72.8464 95.9047 73.2571 95.7024 73.6667 95.8009Z" fill="#E5106C"/>
<path d="M40.8515 100.869L38.8917 97.6661L35.1841 98.571C34.7127 98.686 34.2379 98.3999 34.1229 97.9285C34.0478 97.621 34.1448 97.3117 34.3521 97.1019L36.7883 94.2484L34.7824 90.9992C34.5276 90.5863 34.6528 90.0465 35.0657 89.7916C35.3316 89.6275 35.651 89.6222 35.9127 89.7496L39.3892 91.1917L41.8565 88.2811C42.1703 87.911 42.7239 87.8634 43.094 88.1772C43.3278 88.3754 43.4321 88.6699 43.3981 88.953L43.1011 92.7235L46.6304 94.1721C47.0792 94.3563 47.2949 94.867 47.1107 95.3159C46.9884 95.6139 46.7209 95.8087 46.4235 95.8519L42.792 96.7219L42.5069 100.53C42.4706 101.014 42.0499 101.377 41.566 101.341C41.251 101.317 40.9872 101.13 40.8515 100.869ZM40.0541 96.2071L40.9596 97.6869L41.086 95.9992C41.0951 95.6103 41.3637 95.2608 41.7597 95.1659L43.4572 94.763L41.9122 94.1288C41.53 94.0091 41.267 93.6376 41.2998 93.2214L41.4372 91.4873L40.3522 92.7674C40.1182 93.0863 39.6889 93.217 39.3073 93.0586L37.698 92.3893L38.5728 93.8063C38.8137 94.128 38.8089 94.5846 38.5371 94.9029L37.4043 96.2261L39.028 95.8298C39.4074 95.703 39.8364 95.8513 40.0541 96.2071Z" fill="#E5106C"/>
<path d="M13.302 76.548L14.176 72.9132L10.9139 70.9316C10.4993 70.6797 10.3642 70.1418 10.6161 69.7272C10.7752 69.4653 11.0494 69.3162 11.3343 69.3053L15.1033 69.0084L15.9803 65.297C16.0919 64.8248 16.5647 64.5294 17.0369 64.6409C17.3477 64.7143 17.5805 64.9445 17.6716 65.2278L19.1025 68.6864L22.9079 68.3717C23.3914 68.3318 23.816 68.691 23.8559 69.1745C23.8819 69.4899 23.7379 69.7803 23.5005 69.9551L20.6467 72.3929L22.1188 75.9152C22.3058 76.363 22.0961 76.8771 21.6484 77.0642C21.357 77.1859 21.0372 77.139 20.7979 76.9679L17.6 75.0064L14.7072 77.4964C14.3395 77.8129 13.7846 77.7715 13.4681 77.4038C13.2579 77.1595 13.2056 76.8327 13.302 76.548ZM16.0267 72.7018L15.6203 74.392L16.922 73.2715C17.2038 73.0168 17.6303 72.966 17.9705 73.1747L19.4535 74.0869L18.8036 72.5318C18.629 72.1795 18.7081 71.7408 19.0205 71.4739L20.3445 70.346L18.6445 70.4866C18.2625 70.5331 17.8811 70.323 17.7268 69.9501L17.0642 68.3412L16.6752 69.9878C16.6068 70.3723 16.2864 70.6773 15.879 70.7094L14.1416 70.8454L15.5584 71.7061C15.9229 71.8819 16.1251 72.2924 16.0267 72.7018Z" fill="#E5106C"/>
<path d="M10.8651 39.9727L14.0679 38.0129L13.163 34.3052C13.048 33.8338 13.3341 33.359 13.8055 33.244C14.113 33.1689 14.4223 33.2658 14.6321 33.4732L17.4855 35.9094L20.7348 33.9036C21.1476 33.6487 21.6874 33.774 21.9423 34.1868C22.1064 34.4528 22.1117 34.772 21.9843 35.0337L20.5422 38.5103L23.4529 40.9777C23.823 41.2915 23.8706 41.845 23.5568 42.2152C23.3586 42.449 23.0642 42.5533 22.781 42.5192L19.0105 42.2222L17.5619 45.7515C17.3777 46.2003 16.8669 46.416 16.4181 46.2318C16.1201 46.1095 15.9253 45.842 15.8821 45.5447L15.0121 41.9132L11.2041 41.628C10.7203 41.5918 10.3569 41.1711 10.3931 40.6872C10.4167 40.3722 10.6039 40.1084 10.8651 39.9727ZM15.5269 39.1753L14.0471 40.0808L15.7348 40.2071C16.1237 40.2163 16.4732 40.4848 16.5681 40.8809L16.971 42.5784L17.6052 41.0333C17.7249 40.6511 18.0964 40.3882 18.5126 40.4209L20.2467 40.5583L18.9666 39.4733C18.6477 39.2393 18.5171 38.81 18.6754 38.4284L19.3447 36.8192L17.9276 37.694C17.6059 37.9348 17.1493 37.9301 16.831 37.6583L15.5079 36.5255L15.9042 38.1491C16.031 38.5285 15.8827 38.9576 15.5269 39.1753Z" fill="#E5106C"/>
<path d="M35.1729 12.3215L38.8077 13.1956L40.7893 9.93347C41.0412 9.51879 41.579 9.38371 41.9937 9.63563C42.2556 9.79476 42.4047 10.0689 42.4156 10.3539L42.7125 14.1227L46.4239 14.9997C46.8961 15.1113 47.1915 15.5842 47.08 16.0564C47.0065 16.3671 46.7764 16.5999 46.4931 16.6911L43.0345 18.122L43.3492 21.9274C43.3891 22.4109 43.0299 22.8355 42.5463 22.8754C42.2309 22.9015 41.9406 22.7575 41.7658 22.52L39.3279 19.6662L35.8057 21.1383C35.358 21.3253 34.8439 21.1156 34.6568 20.6679C34.5351 20.3766 34.582 20.0568 34.7531 19.8175L36.7146 16.6195L34.2245 13.7266C33.908 13.3589 33.9494 12.8041 34.3171 12.4875C34.5614 12.2773 34.8882 12.2251 35.1729 12.3215ZM39.019 15.0463L37.3289 14.6398L38.4494 15.9415C38.7041 16.2234 38.7549 16.6498 38.5462 16.99L37.634 18.473L39.1891 17.8231C39.5414 17.6485 39.9801 17.7276 40.247 18.0401L41.3749 19.364L41.2343 17.664C41.1878 17.282 41.398 16.9005 41.7709 16.7462L43.3798 16.0837L41.7331 15.6946C41.3487 15.6262 41.0436 15.3059 41.0116 14.8985L40.8755 13.1611L40.015 14.5776C39.8394 14.9424 39.4286 15.1448 39.019 15.0463Z" fill="#E5106C"/>
</g>
</svg>
